<mxfile host="app.diagrams.net" modified="2021-11-12T22:34:35.465Z" agent="5.0 (Windows NT 10.0; Win64; x64) AppleWebKit/537.36 (KHTML, like Gecko) Chrome/95.0.4638.69 Safari/537.36" etag="qBnykErLgVBQOTaBCf-E" version="15.7.3" type="github" pages="4">
  <diagram name="PetHelp-database" id="2ca16b54-16f6-2749-3443-fa8db7711227">
    <mxGraphModel dx="1209" dy="662" grid="1" gridSize="10" guides="1" tooltips="1" connect="1" arrows="1" fold="1" page="1" pageScale="1" pageWidth="1100" pageHeight="850" background="none" math="0" shadow="0">
      <root>
        <mxCell id="0" />
        <mxCell id="1" parent="0" />
        <mxCell id="d9pk4JmE-ub6RVfEhv-7-88" style="edgeStyle=orthogonalEdgeStyle;rounded=0;orthogonalLoop=1;jettySize=auto;html=1;startSize=30;entryX=0;entryY=0.5;entryDx=0;entryDy=0;" parent="1" source="d9pk4JmE-ub6RVfEhv-7-12" edge="1">
          <mxGeometry relative="1" as="geometry">
            <mxPoint x="300" y="255" as="targetPoint" />
          </mxGeometry>
        </mxCell>
        <mxCell id="QtIBop6cxiTDtGJya895-3" value="PhPetsPost" style="shape=table;startSize=30;container=1;collapsible=1;childLayout=tableLayout;fixedRows=1;rowLines=0;fontStyle=1;align=center;resizeLast=1;" parent="1" vertex="1">
          <mxGeometry x="810" y="120" width="180" height="270" as="geometry">
            <mxRectangle x="570" y="120" width="70" height="30" as="alternateBounds" />
          </mxGeometry>
        </mxCell>
        <mxCell id="QtIBop6cxiTDtGJya895-4" value="" style="shape=partialRectangle;collapsible=0;dropTarget=0;pointerEvents=0;fillColor=none;top=0;left=0;bottom=1;right=0;points=[[0,0.5],[1,0.5]];portConstraint=eastwest;" parent="QtIBop6cxiTDtGJya895-3" vertex="1">
          <mxGeometry y="30" width="180" height="30" as="geometry" />
        </mxCell>
        <mxCell id="QtIBop6cxiTDtGJya895-5" value="PK" style="shape=partialRectangle;connectable=0;fillColor=none;top=0;left=0;bottom=0;right=0;fontStyle=1;overflow=hidden;" parent="QtIBop6cxiTDtGJya895-4" vertex="1">
          <mxGeometry width="30" height="30" as="geometry">
            <mxRectangle width="30" height="30" as="alternateBounds" />
          </mxGeometry>
        </mxCell>
        <mxCell id="QtIBop6cxiTDtGJya895-6" value="postId: uuid" style="shape=partialRectangle;connectable=0;fillColor=none;top=0;left=0;bottom=0;right=0;align=left;spacingLeft=6;fontStyle=5;overflow=hidden;" parent="QtIBop6cxiTDtGJya895-4" vertex="1">
          <mxGeometry x="30" width="150" height="30" as="geometry">
            <mxRectangle width="150" height="30" as="alternateBounds" />
          </mxGeometry>
        </mxCell>
        <mxCell id="QtIBop6cxiTDtGJya895-7" value="" style="shape=partialRectangle;collapsible=0;dropTarget=0;pointerEvents=0;fillColor=none;top=0;left=0;bottom=0;right=0;points=[[0,0.5],[1,0.5]];portConstraint=eastwest;" parent="QtIBop6cxiTDtGJya895-3" vertex="1">
          <mxGeometry y="60" width="180" height="30" as="geometry" />
        </mxCell>
        <mxCell id="QtIBop6cxiTDtGJya895-8" value="FK" style="shape=partialRectangle;connectable=0;fillColor=none;top=0;left=0;bottom=0;right=0;editable=1;overflow=hidden;" parent="QtIBop6cxiTDtGJya895-7" vertex="1">
          <mxGeometry width="30" height="30" as="geometry">
            <mxRectangle width="30" height="30" as="alternateBounds" />
          </mxGeometry>
        </mxCell>
        <mxCell id="QtIBop6cxiTDtGJya895-9" value="petId: uuid" style="shape=partialRectangle;connectable=0;fillColor=none;top=0;left=0;bottom=0;right=0;align=left;spacingLeft=6;overflow=hidden;" parent="QtIBop6cxiTDtGJya895-7" vertex="1">
          <mxGeometry x="30" width="150" height="30" as="geometry">
            <mxRectangle width="150" height="30" as="alternateBounds" />
          </mxGeometry>
        </mxCell>
        <mxCell id="MG6HM_y_iJSfQHGpXqfX-33" style="shape=partialRectangle;collapsible=0;dropTarget=0;pointerEvents=0;fillColor=none;top=0;left=0;bottom=0;right=0;points=[[0,0.5],[1,0.5]];portConstraint=eastwest;" vertex="1" parent="QtIBop6cxiTDtGJya895-3">
          <mxGeometry y="90" width="180" height="30" as="geometry" />
        </mxCell>
        <mxCell id="MG6HM_y_iJSfQHGpXqfX-34" style="shape=partialRectangle;connectable=0;fillColor=none;top=0;left=0;bottom=0;right=0;editable=1;overflow=hidden;" vertex="1" parent="MG6HM_y_iJSfQHGpXqfX-33">
          <mxGeometry width="30" height="30" as="geometry">
            <mxRectangle width="30" height="30" as="alternateBounds" />
          </mxGeometry>
        </mxCell>
        <mxCell id="MG6HM_y_iJSfQHGpXqfX-35" value="userId: uuid" style="shape=partialRectangle;connectable=0;fillColor=none;top=0;left=0;bottom=0;right=0;align=left;spacingLeft=6;overflow=hidden;" vertex="1" parent="MG6HM_y_iJSfQHGpXqfX-33">
          <mxGeometry x="30" width="150" height="30" as="geometry">
            <mxRectangle width="150" height="30" as="alternateBounds" />
          </mxGeometry>
        </mxCell>
        <mxCell id="QtIBop6cxiTDtGJya895-136" style="shape=partialRectangle;collapsible=0;dropTarget=0;pointerEvents=0;fillColor=none;top=0;left=0;bottom=0;right=0;points=[[0,0.5],[1,0.5]];portConstraint=eastwest;" parent="QtIBop6cxiTDtGJya895-3" vertex="1">
          <mxGeometry y="120" width="180" height="30" as="geometry" />
        </mxCell>
        <mxCell id="QtIBop6cxiTDtGJya895-137" style="shape=partialRectangle;connectable=0;fillColor=none;top=0;left=0;bottom=0;right=0;editable=1;overflow=hidden;" parent="QtIBop6cxiTDtGJya895-136" vertex="1">
          <mxGeometry width="30" height="30" as="geometry">
            <mxRectangle width="30" height="30" as="alternateBounds" />
          </mxGeometry>
        </mxCell>
        <mxCell id="QtIBop6cxiTDtGJya895-138" value="addressId: uuid" style="shape=partialRectangle;connectable=0;fillColor=none;top=0;left=0;bottom=0;right=0;align=left;spacingLeft=6;overflow=hidden;" parent="QtIBop6cxiTDtGJya895-136" vertex="1">
          <mxGeometry x="30" width="150" height="30" as="geometry">
            <mxRectangle width="150" height="30" as="alternateBounds" />
          </mxGeometry>
        </mxCell>
        <mxCell id="QtIBop6cxiTDtGJya895-10" value="" style="shape=partialRectangle;collapsible=0;dropTarget=0;pointerEvents=0;fillColor=none;top=0;left=0;bottom=0;right=0;points=[[0,0.5],[1,0.5]];portConstraint=eastwest;" parent="QtIBop6cxiTDtGJya895-3" vertex="1">
          <mxGeometry y="150" width="180" height="30" as="geometry" />
        </mxCell>
        <mxCell id="QtIBop6cxiTDtGJya895-11" value="" style="shape=partialRectangle;connectable=0;fillColor=none;top=0;left=0;bottom=0;right=0;editable=1;overflow=hidden;" parent="QtIBop6cxiTDtGJya895-10" vertex="1">
          <mxGeometry width="30" height="30" as="geometry">
            <mxRectangle width="30" height="30" as="alternateBounds" />
          </mxGeometry>
        </mxCell>
        <mxCell id="QtIBop6cxiTDtGJya895-12" value="status: varchar(15)" style="shape=partialRectangle;connectable=0;fillColor=none;top=0;left=0;bottom=0;right=0;align=left;spacingLeft=6;overflow=hidden;" parent="QtIBop6cxiTDtGJya895-10" vertex="1">
          <mxGeometry x="30" width="150" height="30" as="geometry">
            <mxRectangle width="150" height="30" as="alternateBounds" />
          </mxGeometry>
        </mxCell>
        <mxCell id="QtIBop6cxiTDtGJya895-85" style="shape=partialRectangle;collapsible=0;dropTarget=0;pointerEvents=0;fillColor=none;top=0;left=0;bottom=0;right=0;points=[[0,0.5],[1,0.5]];portConstraint=eastwest;" parent="QtIBop6cxiTDtGJya895-3" vertex="1">
          <mxGeometry y="180" width="180" height="30" as="geometry" />
        </mxCell>
        <mxCell id="QtIBop6cxiTDtGJya895-86" style="shape=partialRectangle;connectable=0;fillColor=none;top=0;left=0;bottom=0;right=0;editable=1;overflow=hidden;" parent="QtIBop6cxiTDtGJya895-85" vertex="1">
          <mxGeometry width="30" height="30" as="geometry">
            <mxRectangle width="30" height="30" as="alternateBounds" />
          </mxGeometry>
        </mxCell>
        <mxCell id="QtIBop6cxiTDtGJya895-87" value="desc: text" style="shape=partialRectangle;connectable=0;fillColor=none;top=0;left=0;bottom=0;right=0;align=left;spacingLeft=6;overflow=hidden;" parent="QtIBop6cxiTDtGJya895-85" vertex="1">
          <mxGeometry x="30" width="150" height="30" as="geometry">
            <mxRectangle width="150" height="30" as="alternateBounds" />
          </mxGeometry>
        </mxCell>
        <mxCell id="QtIBop6cxiTDtGJya895-13" value="" style="shape=partialRectangle;collapsible=0;dropTarget=0;pointerEvents=0;fillColor=none;top=0;left=0;bottom=0;right=0;points=[[0,0.5],[1,0.5]];portConstraint=eastwest;" parent="QtIBop6cxiTDtGJya895-3" vertex="1">
          <mxGeometry y="210" width="180" height="30" as="geometry" />
        </mxCell>
        <mxCell id="QtIBop6cxiTDtGJya895-14" value="" style="shape=partialRectangle;connectable=0;fillColor=none;top=0;left=0;bottom=0;right=0;editable=1;overflow=hidden;" parent="QtIBop6cxiTDtGJya895-13" vertex="1">
          <mxGeometry width="30" height="30" as="geometry">
            <mxRectangle width="30" height="30" as="alternateBounds" />
          </mxGeometry>
        </mxCell>
        <mxCell id="QtIBop6cxiTDtGJya895-15" value="phone: varchar(8)" style="shape=partialRectangle;connectable=0;fillColor=none;top=0;left=0;bottom=0;right=0;align=left;spacingLeft=6;overflow=hidden;" parent="QtIBop6cxiTDtGJya895-13" vertex="1">
          <mxGeometry x="30" width="150" height="30" as="geometry">
            <mxRectangle width="150" height="30" as="alternateBounds" />
          </mxGeometry>
        </mxCell>
        <mxCell id="QtIBop6cxiTDtGJya895-16" style="shape=partialRectangle;collapsible=0;dropTarget=0;pointerEvents=0;fillColor=none;top=0;left=0;bottom=0;right=0;points=[[0,0.5],[1,0.5]];portConstraint=eastwest;" parent="QtIBop6cxiTDtGJya895-3" vertex="1">
          <mxGeometry y="240" width="180" height="30" as="geometry" />
        </mxCell>
        <mxCell id="QtIBop6cxiTDtGJya895-17" style="shape=partialRectangle;connectable=0;fillColor=none;top=0;left=0;bottom=0;right=0;editable=1;overflow=hidden;" parent="QtIBop6cxiTDtGJya895-16" vertex="1">
          <mxGeometry width="30" height="30" as="geometry">
            <mxRectangle width="30" height="30" as="alternateBounds" />
          </mxGeometry>
        </mxCell>
        <mxCell id="QtIBop6cxiTDtGJya895-18" value="createdAt: timestamp" style="shape=partialRectangle;connectable=0;fillColor=none;top=0;left=0;bottom=0;right=0;align=left;spacingLeft=6;overflow=hidden;" parent="QtIBop6cxiTDtGJya895-16" vertex="1">
          <mxGeometry x="30" width="150" height="30" as="geometry">
            <mxRectangle width="150" height="30" as="alternateBounds" />
          </mxGeometry>
        </mxCell>
        <mxCell id="QtIBop6cxiTDtGJya895-25" value="PhPets" style="shape=table;startSize=30;container=1;collapsible=1;childLayout=tableLayout;fixedRows=1;rowLines=0;fontStyle=1;align=center;resizeLast=1;" parent="1" vertex="1">
          <mxGeometry x="560" y="380" width="180" height="300" as="geometry">
            <mxRectangle x="570" y="120" width="70" height="30" as="alternateBounds" />
          </mxGeometry>
        </mxCell>
        <mxCell id="QtIBop6cxiTDtGJya895-26" value="" style="shape=partialRectangle;collapsible=0;dropTarget=0;pointerEvents=0;fillColor=none;top=0;left=0;bottom=1;right=0;points=[[0,0.5],[1,0.5]];portConstraint=eastwest;" parent="QtIBop6cxiTDtGJya895-25" vertex="1">
          <mxGeometry y="30" width="180" height="30" as="geometry" />
        </mxCell>
        <mxCell id="QtIBop6cxiTDtGJya895-27" value="PK" style="shape=partialRectangle;connectable=0;fillColor=none;top=0;left=0;bottom=0;right=0;fontStyle=1;overflow=hidden;" parent="QtIBop6cxiTDtGJya895-26" vertex="1">
          <mxGeometry width="30" height="30" as="geometry">
            <mxRectangle width="30" height="30" as="alternateBounds" />
          </mxGeometry>
        </mxCell>
        <mxCell id="QtIBop6cxiTDtGJya895-28" value="petId: uuid" style="shape=partialRectangle;connectable=0;fillColor=none;top=0;left=0;bottom=0;right=0;align=left;spacingLeft=6;fontStyle=5;overflow=hidden;" parent="QtIBop6cxiTDtGJya895-26" vertex="1">
          <mxGeometry x="30" width="150" height="30" as="geometry">
            <mxRectangle width="150" height="30" as="alternateBounds" />
          </mxGeometry>
        </mxCell>
        <mxCell id="QtIBop6cxiTDtGJya895-32" value="" style="shape=partialRectangle;collapsible=0;dropTarget=0;pointerEvents=0;fillColor=none;top=0;left=0;bottom=0;right=0;points=[[0,0.5],[1,0.5]];portConstraint=eastwest;" parent="QtIBop6cxiTDtGJya895-25" vertex="1">
          <mxGeometry y="60" width="180" height="30" as="geometry" />
        </mxCell>
        <mxCell id="QtIBop6cxiTDtGJya895-33" value="" style="shape=partialRectangle;connectable=0;fillColor=none;top=0;left=0;bottom=0;right=0;editable=1;overflow=hidden;" parent="QtIBop6cxiTDtGJya895-32" vertex="1">
          <mxGeometry width="30" height="30" as="geometry">
            <mxRectangle width="30" height="30" as="alternateBounds" />
          </mxGeometry>
        </mxCell>
        <mxCell id="QtIBop6cxiTDtGJya895-34" value="type: varchar(15)" style="shape=partialRectangle;connectable=0;fillColor=none;top=0;left=0;bottom=0;right=0;align=left;spacingLeft=6;overflow=hidden;" parent="QtIBop6cxiTDtGJya895-32" vertex="1">
          <mxGeometry x="30" width="150" height="30" as="geometry">
            <mxRectangle width="150" height="30" as="alternateBounds" />
          </mxGeometry>
        </mxCell>
        <mxCell id="QtIBop6cxiTDtGJya895-35" value="" style="shape=partialRectangle;collapsible=0;dropTarget=0;pointerEvents=0;fillColor=none;top=0;left=0;bottom=0;right=0;points=[[0,0.5],[1,0.5]];portConstraint=eastwest;" parent="QtIBop6cxiTDtGJya895-25" vertex="1">
          <mxGeometry y="90" width="180" height="30" as="geometry" />
        </mxCell>
        <mxCell id="QtIBop6cxiTDtGJya895-36" value="" style="shape=partialRectangle;connectable=0;fillColor=none;top=0;left=0;bottom=0;right=0;editable=1;overflow=hidden;" parent="QtIBop6cxiTDtGJya895-35" vertex="1">
          <mxGeometry width="30" height="30" as="geometry">
            <mxRectangle width="30" height="30" as="alternateBounds" />
          </mxGeometry>
        </mxCell>
        <mxCell id="QtIBop6cxiTDtGJya895-37" value="breed: varchar(50)" style="shape=partialRectangle;connectable=0;fillColor=none;top=0;left=0;bottom=0;right=0;align=left;spacingLeft=6;overflow=hidden;" parent="QtIBop6cxiTDtGJya895-35" vertex="1">
          <mxGeometry x="30" width="150" height="30" as="geometry">
            <mxRectangle width="150" height="30" as="alternateBounds" />
          </mxGeometry>
        </mxCell>
        <mxCell id="QtIBop6cxiTDtGJya895-38" style="shape=partialRectangle;collapsible=0;dropTarget=0;pointerEvents=0;fillColor=none;top=0;left=0;bottom=0;right=0;points=[[0,0.5],[1,0.5]];portConstraint=eastwest;" parent="QtIBop6cxiTDtGJya895-25" vertex="1">
          <mxGeometry y="120" width="180" height="30" as="geometry" />
        </mxCell>
        <mxCell id="QtIBop6cxiTDtGJya895-39" style="shape=partialRectangle;connectable=0;fillColor=none;top=0;left=0;bottom=0;right=0;editable=1;overflow=hidden;" parent="QtIBop6cxiTDtGJya895-38" vertex="1">
          <mxGeometry width="30" height="30" as="geometry">
            <mxRectangle width="30" height="30" as="alternateBounds" />
          </mxGeometry>
        </mxCell>
        <mxCell id="QtIBop6cxiTDtGJya895-40" value="dateBirth: date " style="shape=partialRectangle;connectable=0;fillColor=none;top=0;left=0;bottom=0;right=0;align=left;spacingLeft=6;overflow=hidden;" parent="QtIBop6cxiTDtGJya895-38" vertex="1">
          <mxGeometry x="30" width="150" height="30" as="geometry">
            <mxRectangle width="150" height="30" as="alternateBounds" />
          </mxGeometry>
        </mxCell>
        <mxCell id="QtIBop6cxiTDtGJya895-41" style="shape=partialRectangle;collapsible=0;dropTarget=0;pointerEvents=0;fillColor=none;top=0;left=0;bottom=0;right=0;points=[[0,0.5],[1,0.5]];portConstraint=eastwest;" parent="QtIBop6cxiTDtGJya895-25" vertex="1">
          <mxGeometry y="150" width="180" height="30" as="geometry" />
        </mxCell>
        <mxCell id="QtIBop6cxiTDtGJya895-42" style="shape=partialRectangle;connectable=0;fillColor=none;top=0;left=0;bottom=0;right=0;editable=1;overflow=hidden;" parent="QtIBop6cxiTDtGJya895-41" vertex="1">
          <mxGeometry width="30" height="30" as="geometry">
            <mxRectangle width="30" height="30" as="alternateBounds" />
          </mxGeometry>
        </mxCell>
        <mxCell id="QtIBop6cxiTDtGJya895-43" value="size: varchar(10)" style="shape=partialRectangle;connectable=0;fillColor=none;top=0;left=0;bottom=0;right=0;align=left;spacingLeft=6;overflow=hidden;" parent="QtIBop6cxiTDtGJya895-41" vertex="1">
          <mxGeometry x="30" width="150" height="30" as="geometry">
            <mxRectangle width="150" height="30" as="alternateBounds" />
          </mxGeometry>
        </mxCell>
        <mxCell id="QtIBop6cxiTDtGJya895-49" style="shape=partialRectangle;collapsible=0;dropTarget=0;pointerEvents=0;fillColor=none;top=0;left=0;bottom=0;right=0;points=[[0,0.5],[1,0.5]];portConstraint=eastwest;" parent="QtIBop6cxiTDtGJya895-25" vertex="1">
          <mxGeometry y="180" width="180" height="30" as="geometry" />
        </mxCell>
        <mxCell id="QtIBop6cxiTDtGJya895-50" style="shape=partialRectangle;connectable=0;fillColor=none;top=0;left=0;bottom=0;right=0;editable=1;overflow=hidden;" parent="QtIBop6cxiTDtGJya895-49" vertex="1">
          <mxGeometry width="30" height="30" as="geometry">
            <mxRectangle width="30" height="30" as="alternateBounds" />
          </mxGeometry>
        </mxCell>
        <mxCell id="QtIBop6cxiTDtGJya895-51" value="color: varchar(15)" style="shape=partialRectangle;connectable=0;fillColor=none;top=0;left=0;bottom=0;right=0;align=left;spacingLeft=6;overflow=hidden;" parent="QtIBop6cxiTDtGJya895-49" vertex="1">
          <mxGeometry x="30" width="150" height="30" as="geometry">
            <mxRectangle width="150" height="30" as="alternateBounds" />
          </mxGeometry>
        </mxCell>
        <mxCell id="QtIBop6cxiTDtGJya895-52" style="shape=partialRectangle;collapsible=0;dropTarget=0;pointerEvents=0;fillColor=none;top=0;left=0;bottom=0;right=0;points=[[0,0.5],[1,0.5]];portConstraint=eastwest;" parent="QtIBop6cxiTDtGJya895-25" vertex="1">
          <mxGeometry y="210" width="180" height="30" as="geometry" />
        </mxCell>
        <mxCell id="QtIBop6cxiTDtGJya895-53" style="shape=partialRectangle;connectable=0;fillColor=none;top=0;left=0;bottom=0;right=0;editable=1;overflow=hidden;" parent="QtIBop6cxiTDtGJya895-52" vertex="1">
          <mxGeometry width="30" height="30" as="geometry">
            <mxRectangle width="30" height="30" as="alternateBounds" />
          </mxGeometry>
        </mxCell>
        <mxCell id="QtIBop6cxiTDtGJya895-54" value="castrated: boolean" style="shape=partialRectangle;connectable=0;fillColor=none;top=0;left=0;bottom=0;right=0;align=left;spacingLeft=6;overflow=hidden;" parent="QtIBop6cxiTDtGJya895-52" vertex="1">
          <mxGeometry x="30" width="150" height="30" as="geometry">
            <mxRectangle width="150" height="30" as="alternateBounds" />
          </mxGeometry>
        </mxCell>
        <mxCell id="QtIBop6cxiTDtGJya895-58" style="shape=partialRectangle;collapsible=0;dropTarget=0;pointerEvents=0;fillColor=none;top=0;left=0;bottom=0;right=0;points=[[0,0.5],[1,0.5]];portConstraint=eastwest;" parent="QtIBop6cxiTDtGJya895-25" vertex="1">
          <mxGeometry y="240" width="180" height="30" as="geometry" />
        </mxCell>
        <mxCell id="QtIBop6cxiTDtGJya895-59" style="shape=partialRectangle;connectable=0;fillColor=none;top=0;left=0;bottom=0;right=0;editable=1;overflow=hidden;" parent="QtIBop6cxiTDtGJya895-58" vertex="1">
          <mxGeometry width="30" height="30" as="geometry">
            <mxRectangle width="30" height="30" as="alternateBounds" />
          </mxGeometry>
        </mxCell>
        <mxCell id="QtIBop6cxiTDtGJya895-60" value="createdAt: timestamp" style="shape=partialRectangle;connectable=0;fillColor=none;top=0;left=0;bottom=0;right=0;align=left;spacingLeft=6;overflow=hidden;" parent="QtIBop6cxiTDtGJya895-58" vertex="1">
          <mxGeometry x="30" width="150" height="30" as="geometry">
            <mxRectangle width="150" height="30" as="alternateBounds" />
          </mxGeometry>
        </mxCell>
        <mxCell id="QtIBop6cxiTDtGJya895-61" style="shape=partialRectangle;collapsible=0;dropTarget=0;pointerEvents=0;fillColor=none;top=0;left=0;bottom=0;right=0;points=[[0,0.5],[1,0.5]];portConstraint=eastwest;" parent="QtIBop6cxiTDtGJya895-25" vertex="1">
          <mxGeometry y="270" width="180" height="30" as="geometry" />
        </mxCell>
        <mxCell id="QtIBop6cxiTDtGJya895-62" style="shape=partialRectangle;connectable=0;fillColor=none;top=0;left=0;bottom=0;right=0;editable=1;overflow=hidden;" parent="QtIBop6cxiTDtGJya895-61" vertex="1">
          <mxGeometry width="30" height="30" as="geometry">
            <mxRectangle width="30" height="30" as="alternateBounds" />
          </mxGeometry>
        </mxCell>
        <mxCell id="QtIBop6cxiTDtGJya895-63" value="updatedAt: timestamp" style="shape=partialRectangle;connectable=0;fillColor=none;top=0;left=0;bottom=0;right=0;align=left;spacingLeft=6;overflow=hidden;" parent="QtIBop6cxiTDtGJya895-61" vertex="1">
          <mxGeometry x="30" width="150" height="30" as="geometry">
            <mxRectangle width="150" height="30" as="alternateBounds" />
          </mxGeometry>
        </mxCell>
        <mxCell id="QtIBop6cxiTDtGJya895-65" value="PhPetsPhotos" style="shape=table;startSize=30;container=1;collapsible=1;childLayout=tableLayout;fixedRows=1;rowLines=0;fontStyle=1;align=center;resizeLast=1;" parent="1" vertex="1">
          <mxGeometry x="810" y="450" width="190" height="210" as="geometry">
            <mxRectangle x="570" y="120" width="70" height="30" as="alternateBounds" />
          </mxGeometry>
        </mxCell>
        <mxCell id="QtIBop6cxiTDtGJya895-66" value="" style="shape=partialRectangle;collapsible=0;dropTarget=0;pointerEvents=0;fillColor=none;top=0;left=0;bottom=1;right=0;points=[[0,0.5],[1,0.5]];portConstraint=eastwest;" parent="QtIBop6cxiTDtGJya895-65" vertex="1">
          <mxGeometry y="30" width="190" height="30" as="geometry" />
        </mxCell>
        <mxCell id="QtIBop6cxiTDtGJya895-67" value="PK" style="shape=partialRectangle;connectable=0;fillColor=none;top=0;left=0;bottom=0;right=0;fontStyle=1;overflow=hidden;" parent="QtIBop6cxiTDtGJya895-66" vertex="1">
          <mxGeometry width="30" height="30" as="geometry">
            <mxRectangle width="30" height="30" as="alternateBounds" />
          </mxGeometry>
        </mxCell>
        <mxCell id="QtIBop6cxiTDtGJya895-68" value="photoId: uuid" style="shape=partialRectangle;connectable=0;fillColor=none;top=0;left=0;bottom=0;right=0;align=left;spacingLeft=6;fontStyle=5;overflow=hidden;" parent="QtIBop6cxiTDtGJya895-66" vertex="1">
          <mxGeometry x="30" width="160" height="30" as="geometry">
            <mxRectangle width="160" height="30" as="alternateBounds" />
          </mxGeometry>
        </mxCell>
        <mxCell id="QtIBop6cxiTDtGJya895-69" value="" style="shape=partialRectangle;collapsible=0;dropTarget=0;pointerEvents=0;fillColor=none;top=0;left=0;bottom=0;right=0;points=[[0,0.5],[1,0.5]];portConstraint=eastwest;" parent="QtIBop6cxiTDtGJya895-65" vertex="1">
          <mxGeometry y="60" width="190" height="30" as="geometry" />
        </mxCell>
        <mxCell id="QtIBop6cxiTDtGJya895-70" value="FK" style="shape=partialRectangle;connectable=0;fillColor=none;top=0;left=0;bottom=0;right=0;editable=1;overflow=hidden;" parent="QtIBop6cxiTDtGJya895-69" vertex="1">
          <mxGeometry width="30" height="30" as="geometry">
            <mxRectangle width="30" height="30" as="alternateBounds" />
          </mxGeometry>
        </mxCell>
        <mxCell id="QtIBop6cxiTDtGJya895-71" value="postId: uuid" style="shape=partialRectangle;connectable=0;fillColor=none;top=0;left=0;bottom=0;right=0;align=left;spacingLeft=6;overflow=hidden;" parent="QtIBop6cxiTDtGJya895-69" vertex="1">
          <mxGeometry x="30" width="160" height="30" as="geometry">
            <mxRectangle width="160" height="30" as="alternateBounds" />
          </mxGeometry>
        </mxCell>
        <mxCell id="QtIBop6cxiTDtGJya895-72" value="" style="shape=partialRectangle;collapsible=0;dropTarget=0;pointerEvents=0;fillColor=none;top=0;left=0;bottom=0;right=0;points=[[0,0.5],[1,0.5]];portConstraint=eastwest;" parent="QtIBop6cxiTDtGJya895-65" vertex="1">
          <mxGeometry y="90" width="190" height="30" as="geometry" />
        </mxCell>
        <mxCell id="QtIBop6cxiTDtGJya895-73" value="" style="shape=partialRectangle;connectable=0;fillColor=none;top=0;left=0;bottom=0;right=0;editable=1;overflow=hidden;" parent="QtIBop6cxiTDtGJya895-72" vertex="1">
          <mxGeometry width="30" height="30" as="geometry">
            <mxRectangle width="30" height="30" as="alternateBounds" />
          </mxGeometry>
        </mxCell>
        <mxCell id="QtIBop6cxiTDtGJya895-74" value="key: text" style="shape=partialRectangle;connectable=0;fillColor=none;top=0;left=0;bottom=0;right=0;align=left;spacingLeft=6;overflow=hidden;" parent="QtIBop6cxiTDtGJya895-72" vertex="1">
          <mxGeometry x="30" width="160" height="30" as="geometry">
            <mxRectangle width="160" height="30" as="alternateBounds" />
          </mxGeometry>
        </mxCell>
        <mxCell id="QtIBop6cxiTDtGJya895-82" style="shape=partialRectangle;collapsible=0;dropTarget=0;pointerEvents=0;fillColor=none;top=0;left=0;bottom=0;right=0;points=[[0,0.5],[1,0.5]];portConstraint=eastwest;" parent="QtIBop6cxiTDtGJya895-65" vertex="1">
          <mxGeometry y="120" width="190" height="30" as="geometry" />
        </mxCell>
        <mxCell id="QtIBop6cxiTDtGJya895-83" style="shape=partialRectangle;connectable=0;fillColor=none;top=0;left=0;bottom=0;right=0;editable=1;overflow=hidden;" parent="QtIBop6cxiTDtGJya895-82" vertex="1">
          <mxGeometry width="30" height="30" as="geometry">
            <mxRectangle width="30" height="30" as="alternateBounds" />
          </mxGeometry>
        </mxCell>
        <mxCell id="QtIBop6cxiTDtGJya895-84" value="desc: text" style="shape=partialRectangle;connectable=0;fillColor=none;top=0;left=0;bottom=0;right=0;align=left;spacingLeft=6;overflow=hidden;" parent="QtIBop6cxiTDtGJya895-82" vertex="1">
          <mxGeometry x="30" width="160" height="30" as="geometry">
            <mxRectangle width="160" height="30" as="alternateBounds" />
          </mxGeometry>
        </mxCell>
        <mxCell id="QtIBop6cxiTDtGJya895-75" value="" style="shape=partialRectangle;collapsible=0;dropTarget=0;pointerEvents=0;fillColor=none;top=0;left=0;bottom=0;right=0;points=[[0,0.5],[1,0.5]];portConstraint=eastwest;" parent="QtIBop6cxiTDtGJya895-65" vertex="1">
          <mxGeometry y="150" width="190" height="30" as="geometry" />
        </mxCell>
        <mxCell id="QtIBop6cxiTDtGJya895-76" value="" style="shape=partialRectangle;connectable=0;fillColor=none;top=0;left=0;bottom=0;right=0;editable=1;overflow=hidden;" parent="QtIBop6cxiTDtGJya895-75" vertex="1">
          <mxGeometry width="30" height="30" as="geometry">
            <mxRectangle width="30" height="30" as="alternateBounds" />
          </mxGeometry>
        </mxCell>
        <mxCell id="QtIBop6cxiTDtGJya895-77" value="bucketName: varchar(20)" style="shape=partialRectangle;connectable=0;fillColor=none;top=0;left=0;bottom=0;right=0;align=left;spacingLeft=6;overflow=hidden;" parent="QtIBop6cxiTDtGJya895-75" vertex="1">
          <mxGeometry x="30" width="160" height="30" as="geometry">
            <mxRectangle width="160" height="30" as="alternateBounds" />
          </mxGeometry>
        </mxCell>
        <mxCell id="QtIBop6cxiTDtGJya895-78" style="shape=partialRectangle;collapsible=0;dropTarget=0;pointerEvents=0;fillColor=none;top=0;left=0;bottom=0;right=0;points=[[0,0.5],[1,0.5]];portConstraint=eastwest;" parent="QtIBop6cxiTDtGJya895-65" vertex="1">
          <mxGeometry y="180" width="190" height="30" as="geometry" />
        </mxCell>
        <mxCell id="QtIBop6cxiTDtGJya895-79" style="shape=partialRectangle;connectable=0;fillColor=none;top=0;left=0;bottom=0;right=0;editable=1;overflow=hidden;" parent="QtIBop6cxiTDtGJya895-78" vertex="1">
          <mxGeometry width="30" height="30" as="geometry">
            <mxRectangle width="30" height="30" as="alternateBounds" />
          </mxGeometry>
        </mxCell>
        <mxCell id="QtIBop6cxiTDtGJya895-80" value="createdAt: timestamp" style="shape=partialRectangle;connectable=0;fillColor=none;top=0;left=0;bottom=0;right=0;align=left;spacingLeft=6;overflow=hidden;" parent="QtIBop6cxiTDtGJya895-78" vertex="1">
          <mxGeometry x="30" width="160" height="30" as="geometry">
            <mxRectangle width="160" height="30" as="alternateBounds" />
          </mxGeometry>
        </mxCell>
        <mxCell id="QtIBop6cxiTDtGJya895-92" value="PhUsersPhotos" style="shape=table;startSize=30;container=1;collapsible=1;childLayout=tableLayout;fixedRows=1;rowLines=0;fontStyle=1;align=center;resizeLast=1;" parent="1" vertex="1">
          <mxGeometry x="300" y="400" width="190" height="210" as="geometry">
            <mxRectangle x="570" y="120" width="70" height="30" as="alternateBounds" />
          </mxGeometry>
        </mxCell>
        <mxCell id="QtIBop6cxiTDtGJya895-93" value="" style="shape=partialRectangle;collapsible=0;dropTarget=0;pointerEvents=0;fillColor=none;top=0;left=0;bottom=1;right=0;points=[[0,0.5],[1,0.5]];portConstraint=eastwest;" parent="QtIBop6cxiTDtGJya895-92" vertex="1">
          <mxGeometry y="30" width="190" height="30" as="geometry" />
        </mxCell>
        <mxCell id="QtIBop6cxiTDtGJya895-94" value="PK" style="shape=partialRectangle;connectable=0;fillColor=none;top=0;left=0;bottom=0;right=0;fontStyle=1;overflow=hidden;" parent="QtIBop6cxiTDtGJya895-93" vertex="1">
          <mxGeometry width="30" height="30" as="geometry">
            <mxRectangle width="30" height="30" as="alternateBounds" />
          </mxGeometry>
        </mxCell>
        <mxCell id="QtIBop6cxiTDtGJya895-95" value="photoId: uuid" style="shape=partialRectangle;connectable=0;fillColor=none;top=0;left=0;bottom=0;right=0;align=left;spacingLeft=6;fontStyle=5;overflow=hidden;" parent="QtIBop6cxiTDtGJya895-93" vertex="1">
          <mxGeometry x="30" width="160" height="30" as="geometry">
            <mxRectangle width="160" height="30" as="alternateBounds" />
          </mxGeometry>
        </mxCell>
        <mxCell id="QtIBop6cxiTDtGJya895-96" value="" style="shape=partialRectangle;collapsible=0;dropTarget=0;pointerEvents=0;fillColor=none;top=0;left=0;bottom=0;right=0;points=[[0,0.5],[1,0.5]];portConstraint=eastwest;" parent="QtIBop6cxiTDtGJya895-92" vertex="1">
          <mxGeometry y="60" width="190" height="30" as="geometry" />
        </mxCell>
        <mxCell id="QtIBop6cxiTDtGJya895-97" value="FK" style="shape=partialRectangle;connectable=0;fillColor=none;top=0;left=0;bottom=0;right=0;editable=1;overflow=hidden;" parent="QtIBop6cxiTDtGJya895-96" vertex="1">
          <mxGeometry width="30" height="30" as="geometry">
            <mxRectangle width="30" height="30" as="alternateBounds" />
          </mxGeometry>
        </mxCell>
        <mxCell id="QtIBop6cxiTDtGJya895-98" value="userId: uuid" style="shape=partialRectangle;connectable=0;fillColor=none;top=0;left=0;bottom=0;right=0;align=left;spacingLeft=6;overflow=hidden;" parent="QtIBop6cxiTDtGJya895-96" vertex="1">
          <mxGeometry x="30" width="160" height="30" as="geometry">
            <mxRectangle width="160" height="30" as="alternateBounds" />
          </mxGeometry>
        </mxCell>
        <mxCell id="QtIBop6cxiTDtGJya895-99" value="" style="shape=partialRectangle;collapsible=0;dropTarget=0;pointerEvents=0;fillColor=none;top=0;left=0;bottom=0;right=0;points=[[0,0.5],[1,0.5]];portConstraint=eastwest;" parent="QtIBop6cxiTDtGJya895-92" vertex="1">
          <mxGeometry y="90" width="190" height="30" as="geometry" />
        </mxCell>
        <mxCell id="QtIBop6cxiTDtGJya895-100" value="" style="shape=partialRectangle;connectable=0;fillColor=none;top=0;left=0;bottom=0;right=0;editable=1;overflow=hidden;" parent="QtIBop6cxiTDtGJya895-99" vertex="1">
          <mxGeometry width="30" height="30" as="geometry">
            <mxRectangle width="30" height="30" as="alternateBounds" />
          </mxGeometry>
        </mxCell>
        <mxCell id="QtIBop6cxiTDtGJya895-101" value="key: text" style="shape=partialRectangle;connectable=0;fillColor=none;top=0;left=0;bottom=0;right=0;align=left;spacingLeft=6;overflow=hidden;" parent="QtIBop6cxiTDtGJya895-99" vertex="1">
          <mxGeometry x="30" width="160" height="30" as="geometry">
            <mxRectangle width="160" height="30" as="alternateBounds" />
          </mxGeometry>
        </mxCell>
        <mxCell id="QtIBop6cxiTDtGJya895-102" style="shape=partialRectangle;collapsible=0;dropTarget=0;pointerEvents=0;fillColor=none;top=0;left=0;bottom=0;right=0;points=[[0,0.5],[1,0.5]];portConstraint=eastwest;" parent="QtIBop6cxiTDtGJya895-92" vertex="1">
          <mxGeometry y="120" width="190" height="30" as="geometry" />
        </mxCell>
        <mxCell id="QtIBop6cxiTDtGJya895-103" style="shape=partialRectangle;connectable=0;fillColor=none;top=0;left=0;bottom=0;right=0;editable=1;overflow=hidden;" parent="QtIBop6cxiTDtGJya895-102" vertex="1">
          <mxGeometry width="30" height="30" as="geometry">
            <mxRectangle width="30" height="30" as="alternateBounds" />
          </mxGeometry>
        </mxCell>
        <mxCell id="QtIBop6cxiTDtGJya895-104" value="desc: text" style="shape=partialRectangle;connectable=0;fillColor=none;top=0;left=0;bottom=0;right=0;align=left;spacingLeft=6;overflow=hidden;" parent="QtIBop6cxiTDtGJya895-102" vertex="1">
          <mxGeometry x="30" width="160" height="30" as="geometry">
            <mxRectangle width="160" height="30" as="alternateBounds" />
          </mxGeometry>
        </mxCell>
        <mxCell id="QtIBop6cxiTDtGJya895-105" value="" style="shape=partialRectangle;collapsible=0;dropTarget=0;pointerEvents=0;fillColor=none;top=0;left=0;bottom=0;right=0;points=[[0,0.5],[1,0.5]];portConstraint=eastwest;" parent="QtIBop6cxiTDtGJya895-92" vertex="1">
          <mxGeometry y="150" width="190" height="30" as="geometry" />
        </mxCell>
        <mxCell id="QtIBop6cxiTDtGJya895-106" value="" style="shape=partialRectangle;connectable=0;fillColor=none;top=0;left=0;bottom=0;right=0;editable=1;overflow=hidden;" parent="QtIBop6cxiTDtGJya895-105" vertex="1">
          <mxGeometry width="30" height="30" as="geometry">
            <mxRectangle width="30" height="30" as="alternateBounds" />
          </mxGeometry>
        </mxCell>
        <mxCell id="QtIBop6cxiTDtGJya895-107" value="bucketName: varchar(20)" style="shape=partialRectangle;connectable=0;fillColor=none;top=0;left=0;bottom=0;right=0;align=left;spacingLeft=6;overflow=hidden;" parent="QtIBop6cxiTDtGJya895-105" vertex="1">
          <mxGeometry x="30" width="160" height="30" as="geometry">
            <mxRectangle width="160" height="30" as="alternateBounds" />
          </mxGeometry>
        </mxCell>
        <mxCell id="QtIBop6cxiTDtGJya895-108" style="shape=partialRectangle;collapsible=0;dropTarget=0;pointerEvents=0;fillColor=none;top=0;left=0;bottom=0;right=0;points=[[0,0.5],[1,0.5]];portConstraint=eastwest;" parent="QtIBop6cxiTDtGJya895-92" vertex="1">
          <mxGeometry y="180" width="190" height="30" as="geometry" />
        </mxCell>
        <mxCell id="QtIBop6cxiTDtGJya895-109" style="shape=partialRectangle;connectable=0;fillColor=none;top=0;left=0;bottom=0;right=0;editable=1;overflow=hidden;" parent="QtIBop6cxiTDtGJya895-108" vertex="1">
          <mxGeometry width="30" height="30" as="geometry">
            <mxRectangle width="30" height="30" as="alternateBounds" />
          </mxGeometry>
        </mxCell>
        <mxCell id="QtIBop6cxiTDtGJya895-110" value="createdAt: timestamp" style="shape=partialRectangle;connectable=0;fillColor=none;top=0;left=0;bottom=0;right=0;align=left;spacingLeft=6;overflow=hidden;" parent="QtIBop6cxiTDtGJya895-108" vertex="1">
          <mxGeometry x="30" width="160" height="30" as="geometry">
            <mxRectangle width="160" height="30" as="alternateBounds" />
          </mxGeometry>
        </mxCell>
        <mxCell id="QtIBop6cxiTDtGJya895-111" style="edgeStyle=orthogonalEdgeStyle;rounded=0;orthogonalLoop=1;jettySize=auto;html=1;entryX=0;entryY=0.5;entryDx=0;entryDy=0;startSize=30;" parent="1" target="QtIBop6cxiTDtGJya895-96" edge="1">
          <mxGeometry relative="1" as="geometry">
            <mxPoint x="220" y="475" as="sourcePoint" />
          </mxGeometry>
        </mxCell>
        <mxCell id="QtIBop6cxiTDtGJya895-112" value="PhPetsAddress" style="shape=table;startSize=30;container=1;collapsible=1;childLayout=tableLayout;fixedRows=1;rowLines=0;fontStyle=1;align=center;resizeLast=1;" parent="1" vertex="1">
          <mxGeometry x="560" y="120" width="180" height="240" as="geometry">
            <mxRectangle x="570" y="120" width="70" height="30" as="alternateBounds" />
          </mxGeometry>
        </mxCell>
        <mxCell id="QtIBop6cxiTDtGJya895-113" value="" style="shape=partialRectangle;collapsible=0;dropTarget=0;pointerEvents=0;fillColor=none;top=0;left=0;bottom=1;right=0;points=[[0,0.5],[1,0.5]];portConstraint=eastwest;" parent="QtIBop6cxiTDtGJya895-112" vertex="1">
          <mxGeometry y="30" width="180" height="30" as="geometry" />
        </mxCell>
        <mxCell id="QtIBop6cxiTDtGJya895-114" value="PK" style="shape=partialRectangle;connectable=0;fillColor=none;top=0;left=0;bottom=0;right=0;fontStyle=1;overflow=hidden;" parent="QtIBop6cxiTDtGJya895-113" vertex="1">
          <mxGeometry width="30" height="30" as="geometry">
            <mxRectangle width="30" height="30" as="alternateBounds" />
          </mxGeometry>
        </mxCell>
        <mxCell id="QtIBop6cxiTDtGJya895-115" value="addressId: uuid" style="shape=partialRectangle;connectable=0;fillColor=none;top=0;left=0;bottom=0;right=0;align=left;spacingLeft=6;fontStyle=5;overflow=hidden;" parent="QtIBop6cxiTDtGJya895-113" vertex="1">
          <mxGeometry x="30" width="150" height="30" as="geometry">
            <mxRectangle width="150" height="30" as="alternateBounds" />
          </mxGeometry>
        </mxCell>
        <mxCell id="QtIBop6cxiTDtGJya895-116" value="" style="shape=partialRectangle;collapsible=0;dropTarget=0;pointerEvents=0;fillColor=none;top=0;left=0;bottom=0;right=0;points=[[0,0.5],[1,0.5]];portConstraint=eastwest;" parent="QtIBop6cxiTDtGJya895-112" vertex="1">
          <mxGeometry y="60" width="180" height="30" as="geometry" />
        </mxCell>
        <mxCell id="QtIBop6cxiTDtGJya895-117" value="" style="shape=partialRectangle;connectable=0;fillColor=none;top=0;left=0;bottom=0;right=0;editable=1;overflow=hidden;" parent="QtIBop6cxiTDtGJya895-116" vertex="1">
          <mxGeometry width="30" height="30" as="geometry">
            <mxRectangle width="30" height="30" as="alternateBounds" />
          </mxGeometry>
        </mxCell>
        <mxCell id="QtIBop6cxiTDtGJya895-118" value="address: varchar(30)" style="shape=partialRectangle;connectable=0;fillColor=none;top=0;left=0;bottom=0;right=0;align=left;spacingLeft=6;overflow=hidden;" parent="QtIBop6cxiTDtGJya895-116" vertex="1">
          <mxGeometry x="30" width="150" height="30" as="geometry">
            <mxRectangle width="150" height="30" as="alternateBounds" />
          </mxGeometry>
        </mxCell>
        <mxCell id="QtIBop6cxiTDtGJya895-119" value="" style="shape=partialRectangle;collapsible=0;dropTarget=0;pointerEvents=0;fillColor=none;top=0;left=0;bottom=0;right=0;points=[[0,0.5],[1,0.5]];portConstraint=eastwest;" parent="QtIBop6cxiTDtGJya895-112" vertex="1">
          <mxGeometry y="90" width="180" height="30" as="geometry" />
        </mxCell>
        <mxCell id="QtIBop6cxiTDtGJya895-120" value="" style="shape=partialRectangle;connectable=0;fillColor=none;top=0;left=0;bottom=0;right=0;editable=1;overflow=hidden;" parent="QtIBop6cxiTDtGJya895-119" vertex="1">
          <mxGeometry width="30" height="30" as="geometry">
            <mxRectangle width="30" height="30" as="alternateBounds" />
          </mxGeometry>
        </mxCell>
        <mxCell id="QtIBop6cxiTDtGJya895-121" value="number varchar(5)" style="shape=partialRectangle;connectable=0;fillColor=none;top=0;left=0;bottom=0;right=0;align=left;spacingLeft=6;overflow=hidden;" parent="QtIBop6cxiTDtGJya895-119" vertex="1">
          <mxGeometry x="30" width="150" height="30" as="geometry">
            <mxRectangle width="150" height="30" as="alternateBounds" />
          </mxGeometry>
        </mxCell>
        <mxCell id="QtIBop6cxiTDtGJya895-122" value="" style="shape=partialRectangle;collapsible=0;dropTarget=0;pointerEvents=0;fillColor=none;top=0;left=0;bottom=0;right=0;points=[[0,0.5],[1,0.5]];portConstraint=eastwest;" parent="QtIBop6cxiTDtGJya895-112" vertex="1">
          <mxGeometry y="120" width="180" height="30" as="geometry" />
        </mxCell>
        <mxCell id="QtIBop6cxiTDtGJya895-123" value="" style="shape=partialRectangle;connectable=0;fillColor=none;top=0;left=0;bottom=0;right=0;editable=1;overflow=hidden;" parent="QtIBop6cxiTDtGJya895-122" vertex="1">
          <mxGeometry width="30" height="30" as="geometry">
            <mxRectangle width="30" height="30" as="alternateBounds" />
          </mxGeometry>
        </mxCell>
        <mxCell id="QtIBop6cxiTDtGJya895-124" value="neighborhood: varchar(20)" style="shape=partialRectangle;connectable=0;fillColor=none;top=0;left=0;bottom=0;right=0;align=left;spacingLeft=6;overflow=hidden;" parent="QtIBop6cxiTDtGJya895-122" vertex="1">
          <mxGeometry x="30" width="150" height="30" as="geometry">
            <mxRectangle width="150" height="30" as="alternateBounds" />
          </mxGeometry>
        </mxCell>
        <mxCell id="QtIBop6cxiTDtGJya895-125" style="shape=partialRectangle;collapsible=0;dropTarget=0;pointerEvents=0;fillColor=none;top=0;left=0;bottom=0;right=0;points=[[0,0.5],[1,0.5]];portConstraint=eastwest;" parent="QtIBop6cxiTDtGJya895-112" vertex="1">
          <mxGeometry y="150" width="180" height="30" as="geometry" />
        </mxCell>
        <mxCell id="QtIBop6cxiTDtGJya895-126" style="shape=partialRectangle;connectable=0;fillColor=none;top=0;left=0;bottom=0;right=0;editable=1;overflow=hidden;" parent="QtIBop6cxiTDtGJya895-125" vertex="1">
          <mxGeometry width="30" height="30" as="geometry">
            <mxRectangle width="30" height="30" as="alternateBounds" />
          </mxGeometry>
        </mxCell>
        <mxCell id="QtIBop6cxiTDtGJya895-127" value="city: varchar(20)" style="shape=partialRectangle;connectable=0;fillColor=none;top=0;left=0;bottom=0;right=0;align=left;spacingLeft=6;overflow=hidden;" parent="QtIBop6cxiTDtGJya895-125" vertex="1">
          <mxGeometry x="30" width="150" height="30" as="geometry">
            <mxRectangle width="150" height="30" as="alternateBounds" />
          </mxGeometry>
        </mxCell>
        <mxCell id="QtIBop6cxiTDtGJya895-128" style="shape=partialRectangle;collapsible=0;dropTarget=0;pointerEvents=0;fillColor=none;top=0;left=0;bottom=0;right=0;points=[[0,0.5],[1,0.5]];portConstraint=eastwest;" parent="QtIBop6cxiTDtGJya895-112" vertex="1">
          <mxGeometry y="180" width="180" height="30" as="geometry" />
        </mxCell>
        <mxCell id="QtIBop6cxiTDtGJya895-129" style="shape=partialRectangle;connectable=0;fillColor=none;top=0;left=0;bottom=0;right=0;editable=1;overflow=hidden;" parent="QtIBop6cxiTDtGJya895-128" vertex="1">
          <mxGeometry width="30" height="30" as="geometry">
            <mxRectangle width="30" height="30" as="alternateBounds" />
          </mxGeometry>
        </mxCell>
        <mxCell id="QtIBop6cxiTDtGJya895-130" value="postalcode: varchar(8)" style="shape=partialRectangle;connectable=0;fillColor=none;top=0;left=0;bottom=0;right=0;align=left;spacingLeft=6;overflow=hidden;" parent="QtIBop6cxiTDtGJya895-128" vertex="1">
          <mxGeometry x="30" width="150" height="30" as="geometry">
            <mxRectangle width="150" height="30" as="alternateBounds" />
          </mxGeometry>
        </mxCell>
        <mxCell id="QtIBop6cxiTDtGJya895-131" style="shape=partialRectangle;collapsible=0;dropTarget=0;pointerEvents=0;fillColor=none;top=0;left=0;bottom=0;right=0;points=[[0,0.5],[1,0.5]];portConstraint=eastwest;" parent="QtIBop6cxiTDtGJya895-112" vertex="1">
          <mxGeometry y="210" width="180" height="30" as="geometry" />
        </mxCell>
        <mxCell id="QtIBop6cxiTDtGJya895-132" style="shape=partialRectangle;connectable=0;fillColor=none;top=0;left=0;bottom=0;right=0;editable=1;overflow=hidden;" parent="QtIBop6cxiTDtGJya895-131" vertex="1">
          <mxGeometry width="30" height="30" as="geometry">
            <mxRectangle width="30" height="30" as="alternateBounds" />
          </mxGeometry>
        </mxCell>
        <mxCell id="QtIBop6cxiTDtGJya895-133" value="country: varchar(20)" style="shape=partialRectangle;connectable=0;fillColor=none;top=0;left=0;bottom=0;right=0;align=left;spacingLeft=6;overflow=hidden;" parent="QtIBop6cxiTDtGJya895-131" vertex="1">
          <mxGeometry x="30" width="150" height="30" as="geometry">
            <mxRectangle width="150" height="30" as="alternateBounds" />
          </mxGeometry>
        </mxCell>
        <mxCell id="QtIBop6cxiTDtGJya895-141" value="&lt;font style=&quot;font-size: 10px&quot;&gt;&lt;b&gt;Status&lt;/b&gt;: Perdido/Encontrado/Doacao/Doado&lt;/font&gt;" style="text;html=1;strokeColor=none;fillColor=none;align=center;verticalAlign=middle;whiteSpace=wrap;rounded=0;startSize=30;" parent="1" vertex="1">
          <mxGeometry x="800" y="80" width="250" height="30" as="geometry" />
        </mxCell>
        <mxCell id="QtIBop6cxiTDtGJya895-143" value="PhUsersDb" style="swimlane;fontSize=13;startSize=30;" parent="1" vertex="1">
          <mxGeometry x="20" y="35" width="500" height="765" as="geometry" />
        </mxCell>
        <mxCell id="p2UeSNgkVkjTYPpMphwU-1" value="&lt;h1&gt;&lt;br&gt;&lt;/h1&gt;" style="text;html=1;strokeColor=none;fillColor=none;spacing=5;spacingTop=-20;whiteSpace=wrap;overflow=hidden;rounded=0;" parent="QtIBop6cxiTDtGJya895-143" vertex="1">
          <mxGeometry x="10" y="20" width="410" height="120" as="geometry" />
        </mxCell>
        <mxCell id="7iBdG_psVzyzuygJgbK0-1" value="PhUsersAuthentication" style="shape=table;startSize=30;container=1;collapsible=1;childLayout=tableLayout;fixedRows=1;rowLines=0;fontStyle=1;align=center;resizeLast=1;" parent="QtIBop6cxiTDtGJya895-143" vertex="1">
          <mxGeometry x="20" y="535" width="190" height="210" as="geometry">
            <mxRectangle x="570" y="120" width="70" height="30" as="alternateBounds" />
          </mxGeometry>
        </mxCell>
        <mxCell id="7iBdG_psVzyzuygJgbK0-2" value="" style="shape=partialRectangle;collapsible=0;dropTarget=0;pointerEvents=0;fillColor=none;top=0;left=0;bottom=1;right=0;points=[[0,0.5],[1,0.5]];portConstraint=eastwest;" parent="7iBdG_psVzyzuygJgbK0-1" vertex="1">
          <mxGeometry y="30" width="190" height="30" as="geometry" />
        </mxCell>
        <mxCell id="7iBdG_psVzyzuygJgbK0-3" value="PK" style="shape=partialRectangle;connectable=0;fillColor=none;top=0;left=0;bottom=0;right=0;fontStyle=1;overflow=hidden;" parent="7iBdG_psVzyzuygJgbK0-2" vertex="1">
          <mxGeometry width="30" height="30" as="geometry">
            <mxRectangle width="30" height="30" as="alternateBounds" />
          </mxGeometry>
        </mxCell>
        <mxCell id="7iBdG_psVzyzuygJgbK0-4" value="authId: uuid" style="shape=partialRectangle;connectable=0;fillColor=none;top=0;left=0;bottom=0;right=0;align=left;spacingLeft=6;fontStyle=5;overflow=hidden;" parent="7iBdG_psVzyzuygJgbK0-2" vertex="1">
          <mxGeometry x="30" width="160" height="30" as="geometry">
            <mxRectangle width="160" height="30" as="alternateBounds" />
          </mxGeometry>
        </mxCell>
        <mxCell id="7iBdG_psVzyzuygJgbK0-20" style="shape=partialRectangle;collapsible=0;dropTarget=0;pointerEvents=0;fillColor=none;top=0;left=0;bottom=0;right=0;points=[[0,0.5],[1,0.5]];portConstraint=eastwest;" parent="7iBdG_psVzyzuygJgbK0-1" vertex="1">
          <mxGeometry y="60" width="190" height="30" as="geometry" />
        </mxCell>
        <mxCell id="7iBdG_psVzyzuygJgbK0-21" value="FK" style="shape=partialRectangle;connectable=0;fillColor=none;top=0;left=0;bottom=0;right=0;editable=1;overflow=hidden;" parent="7iBdG_psVzyzuygJgbK0-20" vertex="1">
          <mxGeometry width="30" height="30" as="geometry">
            <mxRectangle width="30" height="30" as="alternateBounds" />
          </mxGeometry>
        </mxCell>
        <mxCell id="7iBdG_psVzyzuygJgbK0-22" value="userId" style="shape=partialRectangle;connectable=0;fillColor=none;top=0;left=0;bottom=0;right=0;align=left;spacingLeft=6;overflow=hidden;" parent="7iBdG_psVzyzuygJgbK0-20" vertex="1">
          <mxGeometry x="30" width="160" height="30" as="geometry">
            <mxRectangle width="160" height="30" as="alternateBounds" />
          </mxGeometry>
        </mxCell>
        <mxCell id="7iBdG_psVzyzuygJgbK0-5" value="" style="shape=partialRectangle;collapsible=0;dropTarget=0;pointerEvents=0;fillColor=none;top=0;left=0;bottom=0;right=0;points=[[0,0.5],[1,0.5]];portConstraint=eastwest;" parent="7iBdG_psVzyzuygJgbK0-1" vertex="1">
          <mxGeometry y="90" width="190" height="30" as="geometry" />
        </mxCell>
        <mxCell id="7iBdG_psVzyzuygJgbK0-6" value="" style="shape=partialRectangle;connectable=0;fillColor=none;top=0;left=0;bottom=0;right=0;editable=1;overflow=hidden;" parent="7iBdG_psVzyzuygJgbK0-5" vertex="1">
          <mxGeometry width="30" height="30" as="geometry">
            <mxRectangle width="30" height="30" as="alternateBounds" />
          </mxGeometry>
        </mxCell>
        <mxCell id="7iBdG_psVzyzuygJgbK0-7" value="email: uuid" style="shape=partialRectangle;connectable=0;fillColor=none;top=0;left=0;bottom=0;right=0;align=left;spacingLeft=6;overflow=hidden;" parent="7iBdG_psVzyzuygJgbK0-5" vertex="1">
          <mxGeometry x="30" width="160" height="30" as="geometry">
            <mxRectangle width="160" height="30" as="alternateBounds" />
          </mxGeometry>
        </mxCell>
        <mxCell id="7iBdG_psVzyzuygJgbK0-8" value="" style="shape=partialRectangle;collapsible=0;dropTarget=0;pointerEvents=0;fillColor=none;top=0;left=0;bottom=0;right=0;points=[[0,0.5],[1,0.5]];portConstraint=eastwest;" parent="7iBdG_psVzyzuygJgbK0-1" vertex="1">
          <mxGeometry y="120" width="190" height="30" as="geometry" />
        </mxCell>
        <mxCell id="7iBdG_psVzyzuygJgbK0-9" value="" style="shape=partialRectangle;connectable=0;fillColor=none;top=0;left=0;bottom=0;right=0;editable=1;overflow=hidden;" parent="7iBdG_psVzyzuygJgbK0-8" vertex="1">
          <mxGeometry width="30" height="30" as="geometry">
            <mxRectangle width="30" height="30" as="alternateBounds" />
          </mxGeometry>
        </mxCell>
        <mxCell id="7iBdG_psVzyzuygJgbK0-10" value="password: text" style="shape=partialRectangle;connectable=0;fillColor=none;top=0;left=0;bottom=0;right=0;align=left;spacingLeft=6;overflow=hidden;" parent="7iBdG_psVzyzuygJgbK0-8" vertex="1">
          <mxGeometry x="30" width="160" height="30" as="geometry">
            <mxRectangle width="160" height="30" as="alternateBounds" />
          </mxGeometry>
        </mxCell>
        <mxCell id="7iBdG_psVzyzuygJgbK0-11" style="shape=partialRectangle;collapsible=0;dropTarget=0;pointerEvents=0;fillColor=none;top=0;left=0;bottom=0;right=0;points=[[0,0.5],[1,0.5]];portConstraint=eastwest;" parent="7iBdG_psVzyzuygJgbK0-1" vertex="1">
          <mxGeometry y="150" width="190" height="30" as="geometry" />
        </mxCell>
        <mxCell id="7iBdG_psVzyzuygJgbK0-12" style="shape=partialRectangle;connectable=0;fillColor=none;top=0;left=0;bottom=0;right=0;editable=1;overflow=hidden;" parent="7iBdG_psVzyzuygJgbK0-11" vertex="1">
          <mxGeometry width="30" height="30" as="geometry">
            <mxRectangle width="30" height="30" as="alternateBounds" />
          </mxGeometry>
        </mxCell>
        <mxCell id="7iBdG_psVzyzuygJgbK0-13" value="passwordChange: boolean" style="shape=partialRectangle;connectable=0;fillColor=none;top=0;left=0;bottom=0;right=0;align=left;spacingLeft=6;overflow=hidden;" parent="7iBdG_psVzyzuygJgbK0-11" vertex="1">
          <mxGeometry x="30" width="160" height="30" as="geometry">
            <mxRectangle width="160" height="30" as="alternateBounds" />
          </mxGeometry>
        </mxCell>
        <mxCell id="7iBdG_psVzyzuygJgbK0-24" style="shape=partialRectangle;collapsible=0;dropTarget=0;pointerEvents=0;fillColor=none;top=0;left=0;bottom=0;right=0;points=[[0,0.5],[1,0.5]];portConstraint=eastwest;" parent="7iBdG_psVzyzuygJgbK0-1" vertex="1">
          <mxGeometry y="180" width="190" height="30" as="geometry" />
        </mxCell>
        <mxCell id="7iBdG_psVzyzuygJgbK0-25" style="shape=partialRectangle;connectable=0;fillColor=none;top=0;left=0;bottom=0;right=0;editable=1;overflow=hidden;" parent="7iBdG_psVzyzuygJgbK0-24" vertex="1">
          <mxGeometry width="30" height="30" as="geometry">
            <mxRectangle width="30" height="30" as="alternateBounds" />
          </mxGeometry>
        </mxCell>
        <mxCell id="7iBdG_psVzyzuygJgbK0-26" value="tipo: varchar(20)" style="shape=partialRectangle;connectable=0;fillColor=none;top=0;left=0;bottom=0;right=0;align=left;spacingLeft=6;overflow=hidden;" parent="7iBdG_psVzyzuygJgbK0-24" vertex="1">
          <mxGeometry x="30" width="160" height="30" as="geometry">
            <mxRectangle width="160" height="30" as="alternateBounds" />
          </mxGeometry>
        </mxCell>
        <mxCell id="7iBdG_psVzyzuygJgbK0-27" value="&lt;font style=&quot;font-size: 10px&quot;&gt;&lt;b&gt;Gender&lt;/b&gt;: F/M&lt;/font&gt;" style="text;html=1;strokeColor=none;fillColor=none;align=center;verticalAlign=middle;whiteSpace=wrap;rounded=0;startSize=30;" parent="QtIBop6cxiTDtGJya895-143" vertex="1">
          <mxGeometry x="250" y="605" width="250" height="30" as="geometry" />
        </mxCell>
        <mxCell id="7iBdG_psVzyzuygJgbK0-29" value="PhUsersAddress" style="shape=table;startSize=30;container=1;collapsible=1;childLayout=tableLayout;fixedRows=1;rowLines=0;fontStyle=1;align=center;resizeLast=1;" parent="QtIBop6cxiTDtGJya895-143" vertex="1">
          <mxGeometry x="280" y="85" width="180" height="240" as="geometry">
            <mxRectangle x="570" y="120" width="70" height="30" as="alternateBounds" />
          </mxGeometry>
        </mxCell>
        <mxCell id="7iBdG_psVzyzuygJgbK0-30" value="" style="shape=partialRectangle;collapsible=0;dropTarget=0;pointerEvents=0;fillColor=none;top=0;left=0;bottom=1;right=0;points=[[0,0.5],[1,0.5]];portConstraint=eastwest;" parent="7iBdG_psVzyzuygJgbK0-29" vertex="1">
          <mxGeometry y="30" width="180" height="30" as="geometry" />
        </mxCell>
        <mxCell id="7iBdG_psVzyzuygJgbK0-31" value="PK" style="shape=partialRectangle;connectable=0;fillColor=none;top=0;left=0;bottom=0;right=0;fontStyle=1;overflow=hidden;" parent="7iBdG_psVzyzuygJgbK0-30" vertex="1">
          <mxGeometry width="30" height="30" as="geometry">
            <mxRectangle width="30" height="30" as="alternateBounds" />
          </mxGeometry>
        </mxCell>
        <mxCell id="7iBdG_psVzyzuygJgbK0-32" value="addressId: uuid" style="shape=partialRectangle;connectable=0;fillColor=none;top=0;left=0;bottom=0;right=0;align=left;spacingLeft=6;fontStyle=5;overflow=hidden;" parent="7iBdG_psVzyzuygJgbK0-30" vertex="1">
          <mxGeometry x="30" width="150" height="30" as="geometry">
            <mxRectangle width="150" height="30" as="alternateBounds" />
          </mxGeometry>
        </mxCell>
        <mxCell id="7iBdG_psVzyzuygJgbK0-33" value="" style="shape=partialRectangle;collapsible=0;dropTarget=0;pointerEvents=0;fillColor=none;top=0;left=0;bottom=0;right=0;points=[[0,0.5],[1,0.5]];portConstraint=eastwest;" parent="7iBdG_psVzyzuygJgbK0-29" vertex="1">
          <mxGeometry y="60" width="180" height="30" as="geometry" />
        </mxCell>
        <mxCell id="7iBdG_psVzyzuygJgbK0-34" value="" style="shape=partialRectangle;connectable=0;fillColor=none;top=0;left=0;bottom=0;right=0;editable=1;overflow=hidden;" parent="7iBdG_psVzyzuygJgbK0-33" vertex="1">
          <mxGeometry width="30" height="30" as="geometry">
            <mxRectangle width="30" height="30" as="alternateBounds" />
          </mxGeometry>
        </mxCell>
        <mxCell id="7iBdG_psVzyzuygJgbK0-35" value="address: varchar(30)" style="shape=partialRectangle;connectable=0;fillColor=none;top=0;left=0;bottom=0;right=0;align=left;spacingLeft=6;overflow=hidden;" parent="7iBdG_psVzyzuygJgbK0-33" vertex="1">
          <mxGeometry x="30" width="150" height="30" as="geometry">
            <mxRectangle width="150" height="30" as="alternateBounds" />
          </mxGeometry>
        </mxCell>
        <mxCell id="7iBdG_psVzyzuygJgbK0-36" value="" style="shape=partialRectangle;collapsible=0;dropTarget=0;pointerEvents=0;fillColor=none;top=0;left=0;bottom=0;right=0;points=[[0,0.5],[1,0.5]];portConstraint=eastwest;" parent="7iBdG_psVzyzuygJgbK0-29" vertex="1">
          <mxGeometry y="90" width="180" height="30" as="geometry" />
        </mxCell>
        <mxCell id="7iBdG_psVzyzuygJgbK0-37" value="" style="shape=partialRectangle;connectable=0;fillColor=none;top=0;left=0;bottom=0;right=0;editable=1;overflow=hidden;" parent="7iBdG_psVzyzuygJgbK0-36" vertex="1">
          <mxGeometry width="30" height="30" as="geometry">
            <mxRectangle width="30" height="30" as="alternateBounds" />
          </mxGeometry>
        </mxCell>
        <mxCell id="7iBdG_psVzyzuygJgbK0-38" value="number varchar(5)" style="shape=partialRectangle;connectable=0;fillColor=none;top=0;left=0;bottom=0;right=0;align=left;spacingLeft=6;overflow=hidden;" parent="7iBdG_psVzyzuygJgbK0-36" vertex="1">
          <mxGeometry x="30" width="150" height="30" as="geometry">
            <mxRectangle width="150" height="30" as="alternateBounds" />
          </mxGeometry>
        </mxCell>
        <mxCell id="7iBdG_psVzyzuygJgbK0-39" value="" style="shape=partialRectangle;collapsible=0;dropTarget=0;pointerEvents=0;fillColor=none;top=0;left=0;bottom=0;right=0;points=[[0,0.5],[1,0.5]];portConstraint=eastwest;" parent="7iBdG_psVzyzuygJgbK0-29" vertex="1">
          <mxGeometry y="120" width="180" height="30" as="geometry" />
        </mxCell>
        <mxCell id="7iBdG_psVzyzuygJgbK0-40" value="" style="shape=partialRectangle;connectable=0;fillColor=none;top=0;left=0;bottom=0;right=0;editable=1;overflow=hidden;" parent="7iBdG_psVzyzuygJgbK0-39" vertex="1">
          <mxGeometry width="30" height="30" as="geometry">
            <mxRectangle width="30" height="30" as="alternateBounds" />
          </mxGeometry>
        </mxCell>
        <mxCell id="7iBdG_psVzyzuygJgbK0-41" value="neighborhood: varchar(20)" style="shape=partialRectangle;connectable=0;fillColor=none;top=0;left=0;bottom=0;right=0;align=left;spacingLeft=6;overflow=hidden;" parent="7iBdG_psVzyzuygJgbK0-39" vertex="1">
          <mxGeometry x="30" width="150" height="30" as="geometry">
            <mxRectangle width="150" height="30" as="alternateBounds" />
          </mxGeometry>
        </mxCell>
        <mxCell id="7iBdG_psVzyzuygJgbK0-42" style="shape=partialRectangle;collapsible=0;dropTarget=0;pointerEvents=0;fillColor=none;top=0;left=0;bottom=0;right=0;points=[[0,0.5],[1,0.5]];portConstraint=eastwest;" parent="7iBdG_psVzyzuygJgbK0-29" vertex="1">
          <mxGeometry y="150" width="180" height="30" as="geometry" />
        </mxCell>
        <mxCell id="7iBdG_psVzyzuygJgbK0-43" style="shape=partialRectangle;connectable=0;fillColor=none;top=0;left=0;bottom=0;right=0;editable=1;overflow=hidden;" parent="7iBdG_psVzyzuygJgbK0-42" vertex="1">
          <mxGeometry width="30" height="30" as="geometry">
            <mxRectangle width="30" height="30" as="alternateBounds" />
          </mxGeometry>
        </mxCell>
        <mxCell id="7iBdG_psVzyzuygJgbK0-44" value="city: varchar(20)" style="shape=partialRectangle;connectable=0;fillColor=none;top=0;left=0;bottom=0;right=0;align=left;spacingLeft=6;overflow=hidden;" parent="7iBdG_psVzyzuygJgbK0-42" vertex="1">
          <mxGeometry x="30" width="150" height="30" as="geometry">
            <mxRectangle width="150" height="30" as="alternateBounds" />
          </mxGeometry>
        </mxCell>
        <mxCell id="7iBdG_psVzyzuygJgbK0-45" style="shape=partialRectangle;collapsible=0;dropTarget=0;pointerEvents=0;fillColor=none;top=0;left=0;bottom=0;right=0;points=[[0,0.5],[1,0.5]];portConstraint=eastwest;" parent="7iBdG_psVzyzuygJgbK0-29" vertex="1">
          <mxGeometry y="180" width="180" height="30" as="geometry" />
        </mxCell>
        <mxCell id="7iBdG_psVzyzuygJgbK0-46" style="shape=partialRectangle;connectable=0;fillColor=none;top=0;left=0;bottom=0;right=0;editable=1;overflow=hidden;" parent="7iBdG_psVzyzuygJgbK0-45" vertex="1">
          <mxGeometry width="30" height="30" as="geometry">
            <mxRectangle width="30" height="30" as="alternateBounds" />
          </mxGeometry>
        </mxCell>
        <mxCell id="7iBdG_psVzyzuygJgbK0-47" value="postalCode: varchar(8)" style="shape=partialRectangle;connectable=0;fillColor=none;top=0;left=0;bottom=0;right=0;align=left;spacingLeft=6;overflow=hidden;" parent="7iBdG_psVzyzuygJgbK0-45" vertex="1">
          <mxGeometry x="30" width="150" height="30" as="geometry">
            <mxRectangle width="150" height="30" as="alternateBounds" />
          </mxGeometry>
        </mxCell>
        <mxCell id="7iBdG_psVzyzuygJgbK0-48" style="shape=partialRectangle;collapsible=0;dropTarget=0;pointerEvents=0;fillColor=none;top=0;left=0;bottom=0;right=0;points=[[0,0.5],[1,0.5]];portConstraint=eastwest;" parent="7iBdG_psVzyzuygJgbK0-29" vertex="1">
          <mxGeometry y="210" width="180" height="30" as="geometry" />
        </mxCell>
        <mxCell id="7iBdG_psVzyzuygJgbK0-49" style="shape=partialRectangle;connectable=0;fillColor=none;top=0;left=0;bottom=0;right=0;editable=1;overflow=hidden;" parent="7iBdG_psVzyzuygJgbK0-48" vertex="1">
          <mxGeometry width="30" height="30" as="geometry">
            <mxRectangle width="30" height="30" as="alternateBounds" />
          </mxGeometry>
        </mxCell>
        <mxCell id="7iBdG_psVzyzuygJgbK0-50" value="country: varchar(20)" style="shape=partialRectangle;connectable=0;fillColor=none;top=0;left=0;bottom=0;right=0;align=left;spacingLeft=6;overflow=hidden;" parent="7iBdG_psVzyzuygJgbK0-48" vertex="1">
          <mxGeometry x="30" width="150" height="30" as="geometry">
            <mxRectangle width="150" height="30" as="alternateBounds" />
          </mxGeometry>
        </mxCell>
        <mxCell id="QtIBop6cxiTDtGJya895-144" value="PhPetsDb" style="swimlane;fontSize=13;startSize=30;" parent="1" vertex="1">
          <mxGeometry x="520" y="35" width="580" height="765" as="geometry" />
        </mxCell>
        <mxCell id="QtIBop6cxiTDtGJya895-145" value="&lt;h1&gt;&lt;br&gt;&lt;/h1&gt;" style="text;html=1;strokeColor=none;fillColor=none;spacing=5;spacingTop=-20;whiteSpace=wrap;overflow=hidden;rounded=0;" parent="QtIBop6cxiTDtGJya895-144" vertex="1">
          <mxGeometry x="10" y="30" width="410" height="30" as="geometry" />
        </mxCell>
        <mxCell id="MG6HM_y_iJSfQHGpXqfX-44" value="" style="endArrow=none;html=1;rounded=0;dashed=1;dashPattern=1 2;" edge="1" parent="QtIBop6cxiTDtGJya895-144">
          <mxGeometry relative="1" as="geometry">
            <mxPoint x="220" y="534" as="sourcePoint" />
            <mxPoint x="290" y="534" as="targetPoint" />
          </mxGeometry>
        </mxCell>
        <mxCell id="MG6HM_y_iJSfQHGpXqfX-45" value="N" style="resizable=0;html=1;align=right;verticalAlign=bottom;" connectable="0" vertex="1" parent="MG6HM_y_iJSfQHGpXqfX-44">
          <mxGeometry x="1" relative="1" as="geometry" />
        </mxCell>
        <mxCell id="MG6HM_y_iJSfQHGpXqfX-48" value="" style="endArrow=none;html=1;rounded=0;dashed=1;dashPattern=1 2;" edge="1" parent="QtIBop6cxiTDtGJya895-144">
          <mxGeometry relative="1" as="geometry">
            <mxPoint x="220" y="205" as="sourcePoint" />
            <mxPoint x="290" y="205" as="targetPoint" />
          </mxGeometry>
        </mxCell>
        <mxCell id="MG6HM_y_iJSfQHGpXqfX-49" value="" style="resizable=0;html=1;align=right;verticalAlign=bottom;" connectable="0" vertex="1" parent="MG6HM_y_iJSfQHGpXqfX-48">
          <mxGeometry x="1" relative="1" as="geometry" />
        </mxCell>
        <mxCell id="7iBdG_psVzyzuygJgbK0-23" style="edgeStyle=orthogonalEdgeStyle;rounded=0;orthogonalLoop=1;jettySize=auto;html=1;exitX=0.5;exitY=1;exitDx=0;exitDy=0;fontSize=13;startSize=30;" parent="1" source="d9pk4JmE-ub6RVfEhv-7-2" edge="1">
          <mxGeometry relative="1" as="geometry">
            <mxPoint x="130" y="570" as="targetPoint" />
          </mxGeometry>
        </mxCell>
        <mxCell id="d9pk4JmE-ub6RVfEhv-7-2" value="PhUsers" style="shape=table;startSize=30;container=1;collapsible=1;childLayout=tableLayout;fixedRows=1;rowLines=0;fontStyle=1;align=center;resizeLast=1;" parent="1" vertex="1">
          <mxGeometry x="40" y="120" width="180" height="400" as="geometry">
            <mxRectangle x="570" y="120" width="70" height="30" as="alternateBounds" />
          </mxGeometry>
        </mxCell>
        <mxCell id="d9pk4JmE-ub6RVfEhv-7-3" value="" style="shape=partialRectangle;collapsible=0;dropTarget=0;pointerEvents=0;fillColor=none;top=0;left=0;bottom=1;right=0;points=[[0,0.5],[1,0.5]];portConstraint=eastwest;" parent="d9pk4JmE-ub6RVfEhv-7-2" vertex="1">
          <mxGeometry y="30" width="180" height="30" as="geometry" />
        </mxCell>
        <mxCell id="d9pk4JmE-ub6RVfEhv-7-4" value="PK" style="shape=partialRectangle;connectable=0;fillColor=none;top=0;left=0;bottom=0;right=0;fontStyle=1;overflow=hidden;" parent="d9pk4JmE-ub6RVfEhv-7-3" vertex="1">
          <mxGeometry width="30" height="30" as="geometry">
            <mxRectangle width="30" height="30" as="alternateBounds" />
          </mxGeometry>
        </mxCell>
        <mxCell id="d9pk4JmE-ub6RVfEhv-7-5" value="userId: uuid" style="shape=partialRectangle;connectable=0;fillColor=none;top=0;left=0;bottom=0;right=0;align=left;spacingLeft=6;fontStyle=5;overflow=hidden;" parent="d9pk4JmE-ub6RVfEhv-7-3" vertex="1">
          <mxGeometry x="30" width="150" height="30" as="geometry">
            <mxRectangle width="150" height="30" as="alternateBounds" />
          </mxGeometry>
        </mxCell>
        <mxCell id="d9pk4JmE-ub6RVfEhv-7-6" value="" style="shape=partialRectangle;collapsible=0;dropTarget=0;pointerEvents=0;fillColor=none;top=0;left=0;bottom=0;right=0;points=[[0,0.5],[1,0.5]];portConstraint=eastwest;" parent="d9pk4JmE-ub6RVfEhv-7-2" vertex="1">
          <mxGeometry y="60" width="180" height="30" as="geometry" />
        </mxCell>
        <mxCell id="d9pk4JmE-ub6RVfEhv-7-7" value="FK" style="shape=partialRectangle;connectable=0;fillColor=none;top=0;left=0;bottom=0;right=0;editable=1;overflow=hidden;" parent="d9pk4JmE-ub6RVfEhv-7-6" vertex="1">
          <mxGeometry width="30" height="30" as="geometry">
            <mxRectangle width="30" height="30" as="alternateBounds" />
          </mxGeometry>
        </mxCell>
        <mxCell id="d9pk4JmE-ub6RVfEhv-7-8" value="addressId: uuid" style="shape=partialRectangle;connectable=0;fillColor=none;top=0;left=0;bottom=0;right=0;align=left;spacingLeft=6;overflow=hidden;" parent="d9pk4JmE-ub6RVfEhv-7-6" vertex="1">
          <mxGeometry x="30" width="150" height="30" as="geometry">
            <mxRectangle width="150" height="30" as="alternateBounds" />
          </mxGeometry>
        </mxCell>
        <mxCell id="d9pk4JmE-ub6RVfEhv-7-9" value="" style="shape=partialRectangle;collapsible=0;dropTarget=0;pointerEvents=0;fillColor=none;top=0;left=0;bottom=0;right=0;points=[[0,0.5],[1,0.5]];portConstraint=eastwest;" parent="d9pk4JmE-ub6RVfEhv-7-2" vertex="1">
          <mxGeometry y="90" width="180" height="30" as="geometry" />
        </mxCell>
        <mxCell id="d9pk4JmE-ub6RVfEhv-7-10" value="" style="shape=partialRectangle;connectable=0;fillColor=none;top=0;left=0;bottom=0;right=0;editable=1;overflow=hidden;" parent="d9pk4JmE-ub6RVfEhv-7-9" vertex="1">
          <mxGeometry width="30" height="30" as="geometry">
            <mxRectangle width="30" height="30" as="alternateBounds" />
          </mxGeometry>
        </mxCell>
        <mxCell id="d9pk4JmE-ub6RVfEhv-7-11" value="document: varchar(14)" style="shape=partialRectangle;connectable=0;fillColor=none;top=0;left=0;bottom=0;right=0;align=left;spacingLeft=6;overflow=hidden;" parent="d9pk4JmE-ub6RVfEhv-7-9" vertex="1">
          <mxGeometry x="30" width="150" height="30" as="geometry">
            <mxRectangle width="150" height="30" as="alternateBounds" />
          </mxGeometry>
        </mxCell>
        <mxCell id="-IKbSMuTgQBnSXrYwBmw-1" style="shape=partialRectangle;collapsible=0;dropTarget=0;pointerEvents=0;fillColor=none;top=0;left=0;bottom=0;right=0;points=[[0,0.5],[1,0.5]];portConstraint=eastwest;" vertex="1" parent="d9pk4JmE-ub6RVfEhv-7-2">
          <mxGeometry y="120" width="180" height="30" as="geometry" />
        </mxCell>
        <mxCell id="-IKbSMuTgQBnSXrYwBmw-2" style="shape=partialRectangle;connectable=0;fillColor=none;top=0;left=0;bottom=0;right=0;editable=1;overflow=hidden;" vertex="1" parent="-IKbSMuTgQBnSXrYwBmw-1">
          <mxGeometry width="30" height="30" as="geometry">
            <mxRectangle width="30" height="30" as="alternateBounds" />
          </mxGeometry>
        </mxCell>
        <mxCell id="-IKbSMuTgQBnSXrYwBmw-3" value="dateBirth: timestamp" style="shape=partialRectangle;connectable=0;fillColor=none;top=0;left=0;bottom=0;right=0;align=left;spacingLeft=6;overflow=hidden;" vertex="1" parent="-IKbSMuTgQBnSXrYwBmw-1">
          <mxGeometry x="30" width="150" height="30" as="geometry">
            <mxRectangle width="150" height="30" as="alternateBounds" />
          </mxGeometry>
        </mxCell>
        <mxCell id="d9pk4JmE-ub6RVfEhv-7-12" value="" style="shape=partialRectangle;collapsible=0;dropTarget=0;pointerEvents=0;fillColor=none;top=0;left=0;bottom=0;right=0;points=[[0,0.5],[1,0.5]];portConstraint=eastwest;" parent="d9pk4JmE-ub6RVfEhv-7-2" vertex="1">
          <mxGeometry y="150" width="180" height="30" as="geometry" />
        </mxCell>
        <mxCell id="d9pk4JmE-ub6RVfEhv-7-13" value="" style="shape=partialRectangle;connectable=0;fillColor=none;top=0;left=0;bottom=0;right=0;editable=1;overflow=hidden;" parent="d9pk4JmE-ub6RVfEhv-7-12" vertex="1">
          <mxGeometry width="30" height="30" as="geometry">
            <mxRectangle width="30" height="30" as="alternateBounds" />
          </mxGeometry>
        </mxCell>
        <mxCell id="d9pk4JmE-ub6RVfEhv-7-14" value="gender: varchar(1)" style="shape=partialRectangle;connectable=0;fillColor=none;top=0;left=0;bottom=0;right=0;align=left;spacingLeft=6;overflow=hidden;" parent="d9pk4JmE-ub6RVfEhv-7-12" vertex="1">
          <mxGeometry x="30" width="150" height="30" as="geometry">
            <mxRectangle width="150" height="30" as="alternateBounds" />
          </mxGeometry>
        </mxCell>
        <mxCell id="d9pk4JmE-ub6RVfEhv-7-30" style="shape=partialRectangle;collapsible=0;dropTarget=0;pointerEvents=0;fillColor=none;top=0;left=0;bottom=0;right=0;points=[[0,0.5],[1,0.5]];portConstraint=eastwest;" parent="d9pk4JmE-ub6RVfEhv-7-2" vertex="1">
          <mxGeometry y="180" width="180" height="30" as="geometry" />
        </mxCell>
        <mxCell id="d9pk4JmE-ub6RVfEhv-7-31" style="shape=partialRectangle;connectable=0;fillColor=none;top=0;left=0;bottom=0;right=0;editable=1;overflow=hidden;" parent="d9pk4JmE-ub6RVfEhv-7-30" vertex="1">
          <mxGeometry width="30" height="30" as="geometry">
            <mxRectangle width="30" height="30" as="alternateBounds" />
          </mxGeometry>
        </mxCell>
        <mxCell id="d9pk4JmE-ub6RVfEhv-7-32" value="photo: text" style="shape=partialRectangle;connectable=0;fillColor=none;top=0;left=0;bottom=0;right=0;align=left;spacingLeft=6;overflow=hidden;" parent="d9pk4JmE-ub6RVfEhv-7-30" vertex="1">
          <mxGeometry x="30" width="150" height="30" as="geometry">
            <mxRectangle width="150" height="30" as="alternateBounds" />
          </mxGeometry>
        </mxCell>
        <mxCell id="d9pk4JmE-ub6RVfEhv-7-27" style="shape=partialRectangle;collapsible=0;dropTarget=0;pointerEvents=0;fillColor=none;top=0;left=0;bottom=0;right=0;points=[[0,0.5],[1,0.5]];portConstraint=eastwest;" parent="d9pk4JmE-ub6RVfEhv-7-2" vertex="1">
          <mxGeometry y="210" width="180" height="30" as="geometry" />
        </mxCell>
        <mxCell id="d9pk4JmE-ub6RVfEhv-7-28" style="shape=partialRectangle;connectable=0;fillColor=none;top=0;left=0;bottom=0;right=0;editable=1;overflow=hidden;" parent="d9pk4JmE-ub6RVfEhv-7-27" vertex="1">
          <mxGeometry width="30" height="30" as="geometry">
            <mxRectangle width="30" height="30" as="alternateBounds" />
          </mxGeometry>
        </mxCell>
        <mxCell id="d9pk4JmE-ub6RVfEhv-7-29" value="firstName: varchar(15)" style="shape=partialRectangle;connectable=0;fillColor=none;top=0;left=0;bottom=0;right=0;align=left;spacingLeft=6;overflow=hidden;" parent="d9pk4JmE-ub6RVfEhv-7-27" vertex="1">
          <mxGeometry x="30" width="150" height="30" as="geometry">
            <mxRectangle width="150" height="30" as="alternateBounds" />
          </mxGeometry>
        </mxCell>
        <mxCell id="d9pk4JmE-ub6RVfEhv-7-24" style="shape=partialRectangle;collapsible=0;dropTarget=0;pointerEvents=0;fillColor=none;top=0;left=0;bottom=0;right=0;points=[[0,0.5],[1,0.5]];portConstraint=eastwest;" parent="d9pk4JmE-ub6RVfEhv-7-2" vertex="1">
          <mxGeometry y="240" width="180" height="30" as="geometry" />
        </mxCell>
        <mxCell id="d9pk4JmE-ub6RVfEhv-7-25" style="shape=partialRectangle;connectable=0;fillColor=none;top=0;left=0;bottom=0;right=0;editable=1;overflow=hidden;" parent="d9pk4JmE-ub6RVfEhv-7-24" vertex="1">
          <mxGeometry width="30" height="30" as="geometry">
            <mxRectangle width="30" height="30" as="alternateBounds" />
          </mxGeometry>
        </mxCell>
        <mxCell id="d9pk4JmE-ub6RVfEhv-7-26" value="lastName: varchar(50)" style="shape=partialRectangle;connectable=0;fillColor=none;top=0;left=0;bottom=0;right=0;align=left;spacingLeft=6;overflow=hidden;" parent="d9pk4JmE-ub6RVfEhv-7-24" vertex="1">
          <mxGeometry x="30" width="150" height="30" as="geometry">
            <mxRectangle width="150" height="30" as="alternateBounds" />
          </mxGeometry>
        </mxCell>
        <mxCell id="d9pk4JmE-ub6RVfEhv-7-33" style="shape=partialRectangle;collapsible=0;dropTarget=0;pointerEvents=0;fillColor=none;top=0;left=0;bottom=0;right=0;points=[[0,0.5],[1,0.5]];portConstraint=eastwest;" parent="d9pk4JmE-ub6RVfEhv-7-2" vertex="1">
          <mxGeometry y="270" width="180" height="30" as="geometry" />
        </mxCell>
        <mxCell id="d9pk4JmE-ub6RVfEhv-7-34" style="shape=partialRectangle;connectable=0;fillColor=none;top=0;left=0;bottom=0;right=0;editable=1;overflow=hidden;" parent="d9pk4JmE-ub6RVfEhv-7-33" vertex="1">
          <mxGeometry width="30" height="30" as="geometry">
            <mxRectangle width="30" height="30" as="alternateBounds" />
          </mxGeometry>
        </mxCell>
        <mxCell id="d9pk4JmE-ub6RVfEhv-7-35" value="telefone: varchar(8)" style="shape=partialRectangle;connectable=0;fillColor=none;top=0;left=0;bottom=0;right=0;align=left;spacingLeft=6;overflow=hidden;" parent="d9pk4JmE-ub6RVfEhv-7-33" vertex="1">
          <mxGeometry x="30" width="150" height="30" as="geometry">
            <mxRectangle width="150" height="30" as="alternateBounds" />
          </mxGeometry>
        </mxCell>
        <mxCell id="d9pk4JmE-ub6RVfEhv-7-36" style="shape=partialRectangle;collapsible=0;dropTarget=0;pointerEvents=0;fillColor=none;top=0;left=0;bottom=0;right=0;points=[[0,0.5],[1,0.5]];portConstraint=eastwest;" parent="d9pk4JmE-ub6RVfEhv-7-2" vertex="1">
          <mxGeometry y="300" width="180" height="30" as="geometry" />
        </mxCell>
        <mxCell id="d9pk4JmE-ub6RVfEhv-7-37" style="shape=partialRectangle;connectable=0;fillColor=none;top=0;left=0;bottom=0;right=0;editable=1;overflow=hidden;" parent="d9pk4JmE-ub6RVfEhv-7-36" vertex="1">
          <mxGeometry width="30" height="30" as="geometry">
            <mxRectangle width="30" height="30" as="alternateBounds" />
          </mxGeometry>
        </mxCell>
        <mxCell id="d9pk4JmE-ub6RVfEhv-7-38" value="ong: boolean" style="shape=partialRectangle;connectable=0;fillColor=none;top=0;left=0;bottom=0;right=0;align=left;spacingLeft=6;overflow=hidden;" parent="d9pk4JmE-ub6RVfEhv-7-36" vertex="1">
          <mxGeometry x="30" width="150" height="30" as="geometry">
            <mxRectangle width="150" height="30" as="alternateBounds" />
          </mxGeometry>
        </mxCell>
        <mxCell id="d9pk4JmE-ub6RVfEhv-7-39" style="shape=partialRectangle;collapsible=0;dropTarget=0;pointerEvents=0;fillColor=none;top=0;left=0;bottom=0;right=0;points=[[0,0.5],[1,0.5]];portConstraint=eastwest;" parent="d9pk4JmE-ub6RVfEhv-7-2" vertex="1">
          <mxGeometry y="330" width="180" height="30" as="geometry" />
        </mxCell>
        <mxCell id="d9pk4JmE-ub6RVfEhv-7-40" style="shape=partialRectangle;connectable=0;fillColor=none;top=0;left=0;bottom=0;right=0;editable=1;overflow=hidden;" parent="d9pk4JmE-ub6RVfEhv-7-39" vertex="1">
          <mxGeometry width="30" height="30" as="geometry">
            <mxRectangle width="30" height="30" as="alternateBounds" />
          </mxGeometry>
        </mxCell>
        <mxCell id="d9pk4JmE-ub6RVfEhv-7-41" value="createdAt: timestamp" style="shape=partialRectangle;connectable=0;fillColor=none;top=0;left=0;bottom=0;right=0;align=left;spacingLeft=6;overflow=hidden;" parent="d9pk4JmE-ub6RVfEhv-7-39" vertex="1">
          <mxGeometry x="30" width="150" height="30" as="geometry">
            <mxRectangle width="150" height="30" as="alternateBounds" />
          </mxGeometry>
        </mxCell>
        <mxCell id="d9pk4JmE-ub6RVfEhv-7-42" style="shape=partialRectangle;collapsible=0;dropTarget=0;pointerEvents=0;fillColor=none;top=0;left=0;bottom=0;right=0;points=[[0,0.5],[1,0.5]];portConstraint=eastwest;" parent="d9pk4JmE-ub6RVfEhv-7-2" vertex="1">
          <mxGeometry y="360" width="180" height="30" as="geometry" />
        </mxCell>
        <mxCell id="d9pk4JmE-ub6RVfEhv-7-43" style="shape=partialRectangle;connectable=0;fillColor=none;top=0;left=0;bottom=0;right=0;editable=1;overflow=hidden;" parent="d9pk4JmE-ub6RVfEhv-7-42" vertex="1">
          <mxGeometry width="30" height="30" as="geometry">
            <mxRectangle width="30" height="30" as="alternateBounds" />
          </mxGeometry>
        </mxCell>
        <mxCell id="d9pk4JmE-ub6RVfEhv-7-44" value="updatedAt: timestamp" style="shape=partialRectangle;connectable=0;fillColor=none;top=0;left=0;bottom=0;right=0;align=left;spacingLeft=6;overflow=hidden;" parent="d9pk4JmE-ub6RVfEhv-7-42" vertex="1">
          <mxGeometry x="30" width="150" height="30" as="geometry">
            <mxRectangle width="150" height="30" as="alternateBounds" />
          </mxGeometry>
        </mxCell>
        <mxCell id="MG6HM_y_iJSfQHGpXqfX-46" value="" style="endArrow=none;html=1;rounded=0;dashed=1;dashPattern=1 2;entryX=0.5;entryY=0;entryDx=0;entryDy=0;" edge="1" parent="1" target="QtIBop6cxiTDtGJya895-65">
          <mxGeometry relative="1" as="geometry">
            <mxPoint x="905" y="390" as="sourcePoint" />
            <mxPoint x="980" y="400" as="targetPoint" />
          </mxGeometry>
        </mxCell>
        <mxCell id="MG6HM_y_iJSfQHGpXqfX-47" value="N" style="resizable=0;html=1;align=right;verticalAlign=bottom;" connectable="0" vertex="1" parent="MG6HM_y_iJSfQHGpXqfX-46">
          <mxGeometry x="1" relative="1" as="geometry" />
        </mxCell>
        <mxCell id="MG6HM_y_iJSfQHGpXqfX-50" value="" style="endArrow=none;html=1;rounded=0;dashed=1;dashPattern=1 2;exitX=1;exitY=0.5;exitDx=0;exitDy=0;" edge="1" parent="1" source="QtIBop6cxiTDtGJya895-38">
          <mxGeometry relative="1" as="geometry">
            <mxPoint x="915" y="400" as="sourcePoint" />
            <mxPoint x="810" y="269" as="targetPoint" />
            <Array as="points">
              <mxPoint x="770" y="515" />
              <mxPoint x="770" y="269" />
            </Array>
          </mxGeometry>
        </mxCell>
        <mxCell id="MG6HM_y_iJSfQHGpXqfX-51" value="N" style="resizable=0;html=1;align=right;verticalAlign=bottom;" connectable="0" vertex="1" parent="MG6HM_y_iJSfQHGpXqfX-50">
          <mxGeometry x="1" relative="1" as="geometry" />
        </mxCell>
        <mxCell id="MG6HM_y_iJSfQHGpXqfX-52" value="1" style="text;html=1;align=center;verticalAlign=middle;resizable=0;points=[];autosize=1;strokeColor=none;fillColor=none;" vertex="1" parent="1">
          <mxGeometry x="740" y="490" width="20" height="20" as="geometry" />
        </mxCell>
        <mxCell id="MG6HM_y_iJSfQHGpXqfX-53" value="1" style="text;html=1;align=center;verticalAlign=middle;resizable=0;points=[];autosize=1;strokeColor=none;fillColor=none;" vertex="1" parent="1">
          <mxGeometry x="740" y="220" width="20" height="20" as="geometry" />
        </mxCell>
        <mxCell id="MG6HM_y_iJSfQHGpXqfX-54" value="1" style="text;html=1;align=center;verticalAlign=middle;resizable=0;points=[];autosize=1;strokeColor=none;fillColor=none;" vertex="1" parent="1">
          <mxGeometry x="790" y="220" width="20" height="20" as="geometry" />
        </mxCell>
        <mxCell id="MG6HM_y_iJSfQHGpXqfX-55" value="1" style="text;html=1;align=center;verticalAlign=middle;resizable=0;points=[];autosize=1;strokeColor=none;fillColor=none;" vertex="1" parent="1">
          <mxGeometry x="740" y="550" width="20" height="20" as="geometry" />
        </mxCell>
        <mxCell id="MG6HM_y_iJSfQHGpXqfX-56" value="1" style="text;html=1;align=center;verticalAlign=middle;resizable=0;points=[];autosize=1;strokeColor=none;fillColor=none;" vertex="1" parent="1">
          <mxGeometry x="890" y="390" width="20" height="20" as="geometry" />
        </mxCell>
      </root>
    </mxGraphModel>
  </diagram>
  <diagram name="PetHelp-users-api" id="sHCCR4K2Mfo8tqtWt8GS">
    <mxGraphModel dx="1209" dy="1512" grid="1" gridSize="10" guides="1" tooltips="1" connect="1" arrows="1" fold="1" page="1" pageScale="1" pageWidth="1100" pageHeight="850" background="none" math="0" shadow="0">
      <root>
        <mxCell id="tf-IM1iumwktd0zkR87c-0" />
        <mxCell id="tf-IM1iumwktd0zkR87c-1" parent="tf-IM1iumwktd0zkR87c-0" />
        <mxCell id="NiOW4N6MS8t6Ce3KZE2p-13" value="" style="shape=table;html=1;whiteSpace=wrap;startSize=0;container=1;collapsible=0;childLayout=tableLayout;fontSize=13;" parent="tf-IM1iumwktd0zkR87c-1" vertex="1">
          <mxGeometry x="130" y="-560" width="940" height="947" as="geometry" />
        </mxCell>
        <mxCell id="NiOW4N6MS8t6Ce3KZE2p-14" value="" style="shape=partialRectangle;html=1;whiteSpace=wrap;collapsible=0;dropTarget=0;pointerEvents=0;fillColor=none;top=0;left=0;bottom=0;right=0;points=[[0,0.5],[1,0.5]];portConstraint=eastwest;fontSize=13;startSize=30;" parent="NiOW4N6MS8t6Ce3KZE2p-13" vertex="1">
          <mxGeometry width="940" height="30" as="geometry" />
        </mxCell>
        <mxCell id="NiOW4N6MS8t6Ce3KZE2p-15" value="&lt;b style=&quot;font-size: 12px ; text-align: left&quot;&gt;Rotas&lt;/b&gt;" style="shape=partialRectangle;html=1;whiteSpace=wrap;connectable=0;fillColor=none;top=0;left=0;bottom=0;right=0;overflow=hidden;pointerEvents=1;fontSize=13;startSize=30;" parent="NiOW4N6MS8t6Ce3KZE2p-14" vertex="1">
          <mxGeometry width="190" height="30" as="geometry">
            <mxRectangle width="190" height="30" as="alternateBounds" />
          </mxGeometry>
        </mxCell>
        <mxCell id="HEbeeFmUxuk8-Prx1U0X-0" value="&lt;b&gt;Descrição&lt;/b&gt;" style="shape=partialRectangle;html=1;whiteSpace=wrap;connectable=0;fillColor=none;top=0;left=0;bottom=0;right=0;overflow=hidden;pointerEvents=1;fontSize=13;startSize=30;" vertex="1" parent="NiOW4N6MS8t6Ce3KZE2p-14">
          <mxGeometry x="190" width="150" height="30" as="geometry">
            <mxRectangle width="150" height="30" as="alternateBounds" />
          </mxGeometry>
        </mxCell>
        <mxCell id="NiOW4N6MS8t6Ce3KZE2p-16" value="&lt;b style=&quot;font-size: 12px&quot;&gt;Headers&lt;/b&gt;" style="shape=partialRectangle;html=1;whiteSpace=wrap;connectable=0;fillColor=none;top=0;left=0;bottom=0;right=0;overflow=hidden;pointerEvents=1;fontSize=13;startSize=30;" parent="NiOW4N6MS8t6Ce3KZE2p-14" vertex="1">
          <mxGeometry x="340" width="170" height="30" as="geometry">
            <mxRectangle width="170" height="30" as="alternateBounds" />
          </mxGeometry>
        </mxCell>
        <mxCell id="NiOW4N6MS8t6Ce3KZE2p-17" value="&lt;b style=&quot;font-size: 12px ; text-align: left&quot;&gt;Body request&lt;/b&gt;" style="shape=partialRectangle;html=1;whiteSpace=wrap;connectable=0;fillColor=none;top=0;left=0;bottom=0;right=0;overflow=hidden;pointerEvents=1;fontSize=13;startSize=30;" parent="NiOW4N6MS8t6Ce3KZE2p-14" vertex="1">
          <mxGeometry x="510" width="200" height="30" as="geometry">
            <mxRectangle width="200" height="30" as="alternateBounds" />
          </mxGeometry>
        </mxCell>
        <mxCell id="NiOW4N6MS8t6Ce3KZE2p-26" value="&lt;b style=&quot;font-size: 12px ; text-align: left&quot;&gt;Response&lt;/b&gt;" style="shape=partialRectangle;html=1;whiteSpace=wrap;connectable=0;fillColor=none;top=0;left=0;bottom=0;right=0;overflow=hidden;pointerEvents=1;fontSize=13;startSize=30;" parent="NiOW4N6MS8t6Ce3KZE2p-14" vertex="1">
          <mxGeometry x="710" width="230" height="30" as="geometry">
            <mxRectangle width="230" height="30" as="alternateBounds" />
          </mxGeometry>
        </mxCell>
        <mxCell id="NiOW4N6MS8t6Ce3KZE2p-18" value="" style="shape=partialRectangle;html=1;whiteSpace=wrap;collapsible=0;dropTarget=0;pointerEvents=0;fillColor=none;top=0;left=0;bottom=0;right=0;points=[[0,0.5],[1,0.5]];portConstraint=eastwest;fontSize=13;startSize=30;" parent="NiOW4N6MS8t6Ce3KZE2p-13" vertex="1">
          <mxGeometry y="30" width="940" height="250" as="geometry" />
        </mxCell>
        <mxCell id="NiOW4N6MS8t6Ce3KZE2p-19" value="&lt;span style=&quot;font-size: 12px&quot;&gt;POST /users/&lt;/span&gt;" style="shape=partialRectangle;html=1;whiteSpace=wrap;connectable=0;fillColor=none;top=0;left=0;bottom=0;right=0;overflow=hidden;pointerEvents=1;fontSize=13;startSize=30;" parent="NiOW4N6MS8t6Ce3KZE2p-18" vertex="1">
          <mxGeometry width="190" height="250" as="geometry">
            <mxRectangle width="190" height="250" as="alternateBounds" />
          </mxGeometry>
        </mxCell>
        <mxCell id="HEbeeFmUxuk8-Prx1U0X-1" value="Cadastro de usuários" style="shape=partialRectangle;html=1;whiteSpace=wrap;connectable=0;fillColor=none;top=0;left=0;bottom=0;right=0;overflow=hidden;pointerEvents=1;fontSize=13;startSize=30;" vertex="1" parent="NiOW4N6MS8t6Ce3KZE2p-18">
          <mxGeometry x="190" width="150" height="250" as="geometry">
            <mxRectangle width="150" height="250" as="alternateBounds" />
          </mxGeometry>
        </mxCell>
        <mxCell id="NiOW4N6MS8t6Ce3KZE2p-20" value="" style="shape=partialRectangle;html=1;whiteSpace=wrap;connectable=0;fillColor=none;top=0;left=0;bottom=0;right=0;overflow=hidden;pointerEvents=1;fontSize=13;startSize=30;" parent="NiOW4N6MS8t6Ce3KZE2p-18" vertex="1">
          <mxGeometry x="340" width="170" height="250" as="geometry">
            <mxRectangle width="170" height="250" as="alternateBounds" />
          </mxGeometry>
        </mxCell>
        <mxCell id="NiOW4N6MS8t6Ce3KZE2p-21" value="&lt;span style=&quot;font-size: 12px&quot;&gt;{&lt;/span&gt;&lt;br style=&quot;font-size: 12px&quot;&gt;&lt;span style=&quot;font-size: 12px&quot;&gt;&amp;nbsp; &amp;nbsp; &amp;nbsp;&quot;document&quot;:&quot;&quot;,&lt;/span&gt;&lt;br style=&quot;font-size: 12px&quot;&gt;&lt;span style=&quot;font-size: 12px&quot;&gt;&amp;nbsp; &amp;nbsp; &amp;nbsp;&quot;gender&quot;:&quot;&quot;,&amp;nbsp;&lt;/span&gt;&lt;br style=&quot;font-size: 12px&quot;&gt;&lt;span style=&quot;font-size: 12px&quot;&gt;&amp;nbsp; &amp;nbsp; &amp;nbsp;&quot;firstName&quot;:&quot;&quot;,&lt;/span&gt;&lt;br style=&quot;font-size: 12px&quot;&gt;&lt;span style=&quot;font-size: 12px&quot;&gt;&amp;nbsp; &amp;nbsp; &amp;nbsp;&quot;lastName&quot;:&quot;&quot;,&lt;/span&gt;&lt;br style=&quot;font-size: 12px&quot;&gt;&lt;span style=&quot;font-size: 12px&quot;&gt;&amp;nbsp; &amp;nbsp; &amp;nbsp;&quot;email&quot;:&quot;&quot;,&lt;/span&gt;&lt;br style=&quot;font-size: 12px&quot;&gt;&lt;span style=&quot;font-size: 12px&quot;&gt;&amp;nbsp; &amp;nbsp; &amp;nbsp;&quot;password&quot;:&quot;&quot;,&lt;/span&gt;&lt;br style=&quot;font-size: 12px&quot;&gt;&lt;span style=&quot;font-size: 12px&quot;&gt;&amp;nbsp; &amp;nbsp; &amp;nbsp;&quot;telefone&quot;:&quot;&quot;,&lt;/span&gt;&lt;br style=&quot;font-size: 12px&quot;&gt;&lt;span style=&quot;font-size: 12px&quot;&gt;&amp;nbsp; &amp;nbsp; &amp;nbsp;&quot;ong&quot;: boolean&quot;,&lt;br&gt;&lt;/span&gt;&amp;nbsp; &amp;nbsp; &amp;nbsp;&quot;&lt;span style=&quot;font-size: 12px&quot;&gt;address&lt;/span&gt;&quot;: &quot;&quot;,&lt;br&gt;&amp;nbsp; &amp;nbsp; &amp;nbsp;&quot;number&quot;: &quot;&quot;,&lt;br&gt;&amp;nbsp; &amp;nbsp; &amp;nbsp;&quot;neighborhood&quot;: &quot;&quot;,&lt;br&gt;&amp;nbsp; &amp;nbsp; &amp;nbsp;&quot;city&quot;:&quot;&quot;,&lt;br&gt;&amp;nbsp; &amp;nbsp; &amp;nbsp;&quot;postalCode&quot;:&quot;&quot;,&lt;br&gt;&amp;nbsp; &amp;nbsp; &amp;nbsp;&quot;country&quot;: &quot;&quot;&lt;br style=&quot;font-size: 12px&quot;&gt;&lt;span style=&quot;font-size: 12px&quot;&gt;}&lt;/span&gt;" style="shape=partialRectangle;html=1;whiteSpace=wrap;connectable=0;fillColor=none;top=0;left=0;bottom=0;right=0;overflow=hidden;pointerEvents=1;fontSize=13;startSize=30;align=left;" parent="NiOW4N6MS8t6Ce3KZE2p-18" vertex="1">
          <mxGeometry x="510" width="200" height="250" as="geometry">
            <mxRectangle width="200" height="250" as="alternateBounds" />
          </mxGeometry>
        </mxCell>
        <mxCell id="NiOW4N6MS8t6Ce3KZE2p-27" value="&lt;b style=&quot;font-size: 12px&quot;&gt;201 - Created&lt;/b&gt;" style="shape=partialRectangle;html=1;whiteSpace=wrap;connectable=0;fillColor=none;top=0;left=0;bottom=0;right=0;overflow=hidden;pointerEvents=1;fontSize=13;startSize=30;align=left;" parent="NiOW4N6MS8t6Ce3KZE2p-18" vertex="1">
          <mxGeometry x="710" width="230" height="250" as="geometry">
            <mxRectangle width="230" height="250" as="alternateBounds" />
          </mxGeometry>
        </mxCell>
        <mxCell id="NiOW4N6MS8t6Ce3KZE2p-22" value="" style="shape=partialRectangle;html=1;whiteSpace=wrap;collapsible=0;dropTarget=0;pointerEvents=0;fillColor=none;top=0;left=0;bottom=0;right=0;points=[[0,0.5],[1,0.5]];portConstraint=eastwest;fontSize=13;startSize=30;" parent="NiOW4N6MS8t6Ce3KZE2p-13" vertex="1">
          <mxGeometry y="280" width="940" height="85" as="geometry" />
        </mxCell>
        <mxCell id="NiOW4N6MS8t6Ce3KZE2p-23" value="&lt;span style=&quot;font-size: 12px&quot;&gt;POST /authentication/&lt;/span&gt;" style="shape=partialRectangle;html=1;whiteSpace=wrap;connectable=0;fillColor=none;top=0;left=0;bottom=0;right=0;overflow=hidden;pointerEvents=1;fontSize=13;startSize=30;" parent="NiOW4N6MS8t6Ce3KZE2p-22" vertex="1">
          <mxGeometry width="190" height="85" as="geometry">
            <mxRectangle width="190" height="85" as="alternateBounds" />
          </mxGeometry>
        </mxCell>
        <mxCell id="HEbeeFmUxuk8-Prx1U0X-2" value="Autenticação do usuário com retorno de token para dados válidos que possua userId e data de validade de 1 dia." style="shape=partialRectangle;html=1;whiteSpace=wrap;connectable=0;fillColor=none;top=0;left=0;bottom=0;right=0;overflow=hidden;pointerEvents=1;fontSize=13;startSize=30;" vertex="1" parent="NiOW4N6MS8t6Ce3KZE2p-22">
          <mxGeometry x="190" width="150" height="85" as="geometry">
            <mxRectangle width="150" height="85" as="alternateBounds" />
          </mxGeometry>
        </mxCell>
        <mxCell id="NiOW4N6MS8t6Ce3KZE2p-24" value="" style="shape=partialRectangle;html=1;whiteSpace=wrap;connectable=0;fillColor=none;top=0;left=0;bottom=0;right=0;overflow=hidden;pointerEvents=1;fontSize=13;startSize=30;" parent="NiOW4N6MS8t6Ce3KZE2p-22" vertex="1">
          <mxGeometry x="340" width="170" height="85" as="geometry">
            <mxRectangle width="170" height="85" as="alternateBounds" />
          </mxGeometry>
        </mxCell>
        <mxCell id="NiOW4N6MS8t6Ce3KZE2p-25" value="&lt;span style=&quot;font-size: 12px&quot;&gt;{&lt;/span&gt;&lt;br style=&quot;font-size: 12px&quot;&gt;&lt;span style=&quot;font-size: 12px&quot;&gt;&amp;nbsp; &amp;nbsp; &amp;nbsp;&quot;email&quot;:&quot;&quot;,&lt;/span&gt;&lt;br style=&quot;font-size: 12px&quot;&gt;&lt;span style=&quot;font-size: 12px&quot;&gt;&amp;nbsp; &amp;nbsp; &amp;nbsp;&quot;password&quot;:&quot;&quot;&lt;/span&gt;&lt;br style=&quot;font-size: 12px&quot;&gt;&lt;div&gt;&lt;span style=&quot;font-size: 12px&quot;&gt;}&lt;/span&gt;&lt;/div&gt;" style="shape=partialRectangle;html=1;whiteSpace=wrap;connectable=0;fillColor=none;top=0;left=0;bottom=0;right=0;overflow=hidden;pointerEvents=1;fontSize=13;startSize=30;align=left;" parent="NiOW4N6MS8t6Ce3KZE2p-22" vertex="1">
          <mxGeometry x="510" width="200" height="85" as="geometry">
            <mxRectangle width="200" height="85" as="alternateBounds" />
          </mxGeometry>
        </mxCell>
        <mxCell id="NiOW4N6MS8t6Ce3KZE2p-28" value="&lt;br&gt;&lt;b&gt;200&lt;/b&gt;&lt;br&gt;&lt;span style=&quot;color: rgb(0 , 0 , 0) ; font-family: &amp;#34;helvetica&amp;#34; ; font-size: 12px ; font-style: normal ; font-weight: 400 ; letter-spacing: normal ; text-indent: 0px ; text-transform: none ; word-spacing: 0px ; background-color: rgb(248 , 249 , 250) ; display: inline ; float: none&quot;&gt;{&lt;/span&gt;&lt;br style=&quot;color: rgb(0 , 0 , 0) ; font-family: &amp;#34;helvetica&amp;#34; ; font-size: 12px ; font-style: normal ; font-weight: 400 ; letter-spacing: normal ; text-indent: 0px ; text-transform: none ; word-spacing: 0px ; background-color: rgb(248 , 249 , 250)&quot;&gt;&lt;span style=&quot;color: rgb(0 , 0 , 0) ; font-family: &amp;#34;helvetica&amp;#34; ; font-size: 12px ; font-style: normal ; font-weight: 400 ; letter-spacing: normal ; text-indent: 0px ; text-transform: none ; word-spacing: 0px ; background-color: rgb(248 , 249 , 250) ; display: inline ; float: none&quot;&gt;&amp;nbsp; &amp;nbsp; &amp;nbsp;&lt;/span&gt;&lt;span style=&quot;color: rgb(0 , 0 , 0) ; font-family: &amp;#34;helvetica&amp;#34; ; font-size: 12px ; font-style: normal ; font-weight: 400 ; letter-spacing: normal ; text-indent: 0px ; text-transform: none ; word-spacing: 0px ; background-color: rgb(248 , 249 , 250) ; display: inline ; float: none&quot;&gt;&quot;token&quot;:&quot;deve conter userId&quot;&lt;/span&gt;&lt;br style=&quot;color: rgb(0 , 0 , 0) ; font-family: &amp;#34;helvetica&amp;#34; ; font-size: 12px ; font-style: normal ; font-weight: 400 ; letter-spacing: normal ; text-indent: 0px ; text-transform: none ; word-spacing: 0px ; background-color: rgb(248 , 249 , 250)&quot;&gt;&lt;span style=&quot;color: rgb(0 , 0 , 0) ; font-family: &amp;#34;helvetica&amp;#34; ; font-size: 12px ; font-style: normal ; font-weight: 400 ; letter-spacing: normal ; text-indent: 0px ; text-transform: none ; word-spacing: 0px ; background-color: rgb(248 , 249 , 250) ; display: inline ; float: none&quot;&gt;}&lt;/span&gt;" style="shape=partialRectangle;html=1;whiteSpace=wrap;connectable=0;fillColor=none;top=0;left=0;bottom=0;right=0;overflow=hidden;pointerEvents=1;fontSize=13;startSize=30;align=left;" parent="NiOW4N6MS8t6Ce3KZE2p-22" vertex="1">
          <mxGeometry x="710" width="230" height="85" as="geometry">
            <mxRectangle width="230" height="85" as="alternateBounds" />
          </mxGeometry>
        </mxCell>
        <mxCell id="HEbeeFmUxuk8-Prx1U0X-5" style="shape=partialRectangle;html=1;whiteSpace=wrap;collapsible=0;dropTarget=0;pointerEvents=0;fillColor=none;top=0;left=0;bottom=0;right=0;points=[[0,0.5],[1,0.5]];portConstraint=eastwest;fontSize=13;startSize=30;" vertex="1" parent="NiOW4N6MS8t6Ce3KZE2p-13">
          <mxGeometry y="365" width="940" height="199" as="geometry" />
        </mxCell>
        <mxCell id="HEbeeFmUxuk8-Prx1U0X-6" value="POST /authentication/logout" style="shape=partialRectangle;html=1;whiteSpace=wrap;connectable=0;fillColor=none;top=0;left=0;bottom=0;right=0;overflow=hidden;pointerEvents=1;fontSize=13;startSize=30;" vertex="1" parent="HEbeeFmUxuk8-Prx1U0X-5">
          <mxGeometry width="190" height="199" as="geometry">
            <mxRectangle width="190" height="199" as="alternateBounds" />
          </mxGeometry>
        </mxCell>
        <mxCell id="HEbeeFmUxuk8-Prx1U0X-7" value="Logout da conta. Necessário Token pra remover autorização da conta." style="shape=partialRectangle;html=1;whiteSpace=wrap;connectable=0;fillColor=none;top=0;left=0;bottom=0;right=0;overflow=hidden;pointerEvents=1;fontSize=13;startSize=30;" vertex="1" parent="HEbeeFmUxuk8-Prx1U0X-5">
          <mxGeometry x="190" width="150" height="199" as="geometry">
            <mxRectangle width="150" height="199" as="alternateBounds" />
          </mxGeometry>
        </mxCell>
        <mxCell id="HEbeeFmUxuk8-Prx1U0X-8" value="&#xa;&#xa;&lt;span style=&quot;color: rgb(0, 0, 0); font-family: helvetica; font-size: 12px; font-style: normal; font-weight: 400; letter-spacing: normal; text-align: left; text-indent: 0px; text-transform: none; word-spacing: 0px; background-color: rgb(248, 249, 250); display: inline; float: none;&quot;&gt;Authorization: token&lt;/span&gt;&#xa;&#xa;" style="shape=partialRectangle;html=1;whiteSpace=wrap;connectable=0;fillColor=none;top=0;left=0;bottom=0;right=0;overflow=hidden;pointerEvents=1;fontSize=13;startSize=30;" vertex="1" parent="HEbeeFmUxuk8-Prx1U0X-5">
          <mxGeometry x="340" width="170" height="199" as="geometry">
            <mxRectangle width="170" height="199" as="alternateBounds" />
          </mxGeometry>
        </mxCell>
        <mxCell id="HEbeeFmUxuk8-Prx1U0X-9" style="shape=partialRectangle;html=1;whiteSpace=wrap;connectable=0;fillColor=none;top=0;left=0;bottom=0;right=0;overflow=hidden;pointerEvents=1;fontSize=13;startSize=30;" vertex="1" parent="HEbeeFmUxuk8-Prx1U0X-5">
          <mxGeometry x="510" width="200" height="199" as="geometry">
            <mxRectangle width="200" height="199" as="alternateBounds" />
          </mxGeometry>
        </mxCell>
        <mxCell id="HEbeeFmUxuk8-Prx1U0X-10" value="&#xa;&#xa;&lt;br style=&quot;color: rgb(0, 0, 0); font-family: helvetica; font-size: 13px; font-style: normal; font-weight: 400; letter-spacing: normal; text-align: left; text-indent: 0px; text-transform: none; word-spacing: 0px; background-color: rgb(248, 249, 250);&quot;&gt;&lt;b style=&quot;color: rgb(0, 0, 0); font-family: helvetica; font-size: 13px; font-style: normal; letter-spacing: normal; text-align: left; text-indent: 0px; text-transform: none; word-spacing: 0px; background-color: rgb(248, 249, 250);&quot;&gt;200&lt;/b&gt;&lt;br style=&quot;color: rgb(0, 0, 0); font-family: helvetica; font-size: 13px; font-style: normal; font-weight: 400; letter-spacing: normal; text-align: left; text-indent: 0px; text-transform: none; word-spacing: 0px; background-color: rgb(248, 249, 250);&quot;&gt;&lt;span style=&quot;color: rgb(0, 0, 0); font-style: normal; font-weight: 400; letter-spacing: normal; text-align: left; text-indent: 0px; text-transform: none; word-spacing: 0px; font-family: helvetica; font-size: 12px; background-color: rgb(248, 249, 250); display: inline; float: none;&quot;&gt;{&lt;/span&gt;&lt;br style=&quot;color: rgb(0, 0, 0); font-style: normal; font-weight: 400; letter-spacing: normal; text-align: left; text-indent: 0px; text-transform: none; word-spacing: 0px; font-family: helvetica; font-size: 12px; background-color: rgb(248, 249, 250);&quot;&gt;&lt;span style=&quot;color: rgb(0, 0, 0); font-style: normal; font-weight: 400; letter-spacing: normal; text-align: left; text-indent: 0px; text-transform: none; word-spacing: 0px; font-family: helvetica; font-size: 12px; background-color: rgb(248, 249, 250); display: inline; float: none;&quot;&gt;&amp;nbsp; &amp;nbsp; &amp;nbsp;&lt;/span&gt;&lt;span style=&quot;color: rgb(0, 0, 0); font-style: normal; font-weight: 400; letter-spacing: normal; text-align: left; text-indent: 0px; text-transform: none; word-spacing: 0px; font-family: helvetica; font-size: 12px; background-color: rgb(248, 249, 250); display: inline; float: none;&quot;&gt;&quot;token&quot;:&quot;deve conter userId&quot;&lt;/span&gt;&lt;br style=&quot;color: rgb(0, 0, 0); font-style: normal; font-weight: 400; letter-spacing: normal; text-align: left; text-indent: 0px; text-transform: none; word-spacing: 0px; font-family: helvetica; font-size: 12px; background-color: rgb(248, 249, 250);&quot;&gt;&lt;span style=&quot;color: rgb(0, 0, 0); font-style: normal; font-weight: 400; letter-spacing: normal; text-align: left; text-indent: 0px; text-transform: none; word-spacing: 0px; font-family: helvetica; font-size: 12px; background-color: rgb(248, 249, 250); display: inline; float: none;&quot;&gt;}&lt;/span&gt;&#xa;&#xa;" style="shape=partialRectangle;html=1;whiteSpace=wrap;connectable=0;fillColor=none;top=0;left=0;bottom=0;right=0;overflow=hidden;pointerEvents=1;fontSize=13;startSize=30;align=left;" vertex="1" parent="HEbeeFmUxuk8-Prx1U0X-5">
          <mxGeometry x="710" width="230" height="199" as="geometry">
            <mxRectangle width="230" height="199" as="alternateBounds" />
          </mxGeometry>
        </mxCell>
        <mxCell id="NiOW4N6MS8t6Ce3KZE2p-32" style="shape=partialRectangle;html=1;whiteSpace=wrap;collapsible=0;dropTarget=0;pointerEvents=0;fillColor=none;top=0;left=0;bottom=0;right=0;points=[[0,0.5],[1,0.5]];portConstraint=eastwest;fontSize=13;startSize=30;" parent="NiOW4N6MS8t6Ce3KZE2p-13" vertex="1">
          <mxGeometry y="564" width="940" height="199" as="geometry" />
        </mxCell>
        <mxCell id="NiOW4N6MS8t6Ce3KZE2p-33" value="&lt;span style=&quot;font-size: 12px ; text-align: left&quot;&gt;GET /users/{userid}&lt;/span&gt;" style="shape=partialRectangle;html=1;whiteSpace=wrap;connectable=0;fillColor=none;top=0;left=0;bottom=0;right=0;overflow=hidden;pointerEvents=1;fontSize=13;startSize=30;" parent="NiOW4N6MS8t6Ce3KZE2p-32" vertex="1">
          <mxGeometry width="190" height="199" as="geometry">
            <mxRectangle width="190" height="199" as="alternateBounds" />
          </mxGeometry>
        </mxCell>
        <mxCell id="HEbeeFmUxuk8-Prx1U0X-3" value="Consulta de usuário pelo userId. Necessário Token pra autorização da consulta." style="shape=partialRectangle;html=1;whiteSpace=wrap;connectable=0;fillColor=none;top=0;left=0;bottom=0;right=0;overflow=hidden;pointerEvents=1;fontSize=13;startSize=30;" vertex="1" parent="NiOW4N6MS8t6Ce3KZE2p-32">
          <mxGeometry x="190" width="150" height="199" as="geometry">
            <mxRectangle width="150" height="199" as="alternateBounds" />
          </mxGeometry>
        </mxCell>
        <mxCell id="NiOW4N6MS8t6Ce3KZE2p-34" value="&lt;span style=&quot;font-size: 12px ; text-align: left&quot;&gt;Authorization: token&lt;/span&gt;" style="shape=partialRectangle;html=1;whiteSpace=wrap;connectable=0;fillColor=none;top=0;left=0;bottom=0;right=0;overflow=hidden;pointerEvents=1;fontSize=13;startSize=30;" parent="NiOW4N6MS8t6Ce3KZE2p-32" vertex="1">
          <mxGeometry x="340" width="170" height="199" as="geometry">
            <mxRectangle width="170" height="199" as="alternateBounds" />
          </mxGeometry>
        </mxCell>
        <mxCell id="NiOW4N6MS8t6Ce3KZE2p-35" style="shape=partialRectangle;html=1;whiteSpace=wrap;connectable=0;fillColor=none;top=0;left=0;bottom=0;right=0;overflow=hidden;pointerEvents=1;fontSize=13;startSize=30;" parent="NiOW4N6MS8t6Ce3KZE2p-32" vertex="1">
          <mxGeometry x="510" width="200" height="199" as="geometry">
            <mxRectangle width="200" height="199" as="alternateBounds" />
          </mxGeometry>
        </mxCell>
        <mxCell id="NiOW4N6MS8t6Ce3KZE2p-36" value="&lt;b&gt;200&lt;br&gt;&lt;/b&gt;&lt;span style=&quot;font-size: 12px&quot;&gt;{&lt;/span&gt;&lt;br style=&quot;font-size: 12px&quot;&gt;&lt;span style=&quot;font-size: 12px&quot;&gt;&amp;nbsp; &amp;nbsp; &amp;nbsp;&quot;document&quot;:&quot;&quot;,&lt;/span&gt;&lt;br style=&quot;font-size: 12px&quot;&gt;&lt;span style=&quot;font-size: 12px&quot;&gt;&amp;nbsp; &amp;nbsp; &amp;nbsp;&quot;gender&quot;:&quot;&quot;,&amp;nbsp;&lt;/span&gt;&lt;br style=&quot;font-size: 12px&quot;&gt;&lt;div&gt;&lt;span style=&quot;font-size: 12px&quot;&gt;&amp;nbsp; &amp;nbsp; &amp;nbsp;&quot;firstName&quot;:&quot;&quot;,&lt;/span&gt;&lt;/div&gt;&lt;span style=&quot;font-size: 12px&quot;&gt;&lt;div&gt;&lt;span&gt;&amp;nbsp; &amp;nbsp; &amp;nbsp;&quot;lastName&quot;:&quot;&quot;,&lt;/span&gt;&lt;/div&gt;&lt;/span&gt;&lt;span style=&quot;font-size: 12px&quot;&gt;&amp;nbsp; &amp;nbsp; &amp;nbsp;&quot;email&quot;:&quot;&quot;,&lt;/span&gt;&lt;br style=&quot;font-size: 12px&quot;&gt;&lt;span style=&quot;font-size: 12px&quot;&gt;&amp;nbsp; &amp;nbsp; &amp;nbsp;&quot;password&quot;:&quot;&quot;,&lt;/span&gt;&lt;br style=&quot;font-size: 12px&quot;&gt;&lt;span style=&quot;font-size: 12px&quot;&gt;&amp;nbsp; &amp;nbsp; &amp;nbsp;&quot;telefone&quot;:&quot;&quot;,&lt;/span&gt;&lt;br style=&quot;font-size: 12px&quot;&gt;&lt;span style=&quot;font-size: 12px&quot;&gt;&amp;nbsp; &amp;nbsp; &amp;nbsp;&quot;ong&quot;: boolean&quot;&lt;/span&gt;&lt;br style=&quot;font-size: 12px&quot;&gt;&lt;span style=&quot;font-size: 12px&quot;&gt;}&lt;/span&gt;" style="shape=partialRectangle;html=1;whiteSpace=wrap;connectable=0;fillColor=none;top=0;left=0;bottom=0;right=0;overflow=hidden;pointerEvents=1;fontSize=13;startSize=30;align=left;" parent="NiOW4N6MS8t6Ce3KZE2p-32" vertex="1">
          <mxGeometry x="710" width="230" height="199" as="geometry">
            <mxRectangle width="230" height="199" as="alternateBounds" />
          </mxGeometry>
        </mxCell>
        <mxCell id="NiOW4N6MS8t6Ce3KZE2p-37" style="shape=partialRectangle;html=1;whiteSpace=wrap;collapsible=0;dropTarget=0;pointerEvents=0;fillColor=none;top=0;left=0;bottom=0;right=0;points=[[0,0.5],[1,0.5]];portConstraint=eastwest;fontSize=13;startSize=30;" parent="NiOW4N6MS8t6Ce3KZE2p-13" vertex="1">
          <mxGeometry y="763" width="940" height="184" as="geometry" />
        </mxCell>
        <mxCell id="NiOW4N6MS8t6Ce3KZE2p-38" value="&lt;span style=&quot;font-size: 12px ; text-align: left&quot;&gt;PATCH /users/{userid}&lt;/span&gt;" style="shape=partialRectangle;html=1;whiteSpace=wrap;connectable=0;fillColor=none;top=0;left=0;bottom=0;right=0;overflow=hidden;pointerEvents=1;fontSize=13;startSize=30;" parent="NiOW4N6MS8t6Ce3KZE2p-37" vertex="1">
          <mxGeometry width="190" height="184" as="geometry">
            <mxRectangle width="190" height="184" as="alternateBounds" />
          </mxGeometry>
        </mxCell>
        <mxCell id="HEbeeFmUxuk8-Prx1U0X-4" value="Atualização de Dados do Usuário pelo userId" style="shape=partialRectangle;html=1;whiteSpace=wrap;connectable=0;fillColor=none;top=0;left=0;bottom=0;right=0;overflow=hidden;pointerEvents=1;fontSize=13;startSize=30;" vertex="1" parent="NiOW4N6MS8t6Ce3KZE2p-37">
          <mxGeometry x="190" width="150" height="184" as="geometry">
            <mxRectangle width="150" height="184" as="alternateBounds" />
          </mxGeometry>
        </mxCell>
        <mxCell id="NiOW4N6MS8t6Ce3KZE2p-39" value="&lt;span style=&quot;font-size: 12px ; text-align: left&quot;&gt;Authorization: token&lt;/span&gt;" style="shape=partialRectangle;html=1;whiteSpace=wrap;connectable=0;fillColor=none;top=0;left=0;bottom=0;right=0;overflow=hidden;pointerEvents=1;fontSize=13;startSize=30;" parent="NiOW4N6MS8t6Ce3KZE2p-37" vertex="1">
          <mxGeometry x="340" width="170" height="184" as="geometry">
            <mxRectangle width="170" height="184" as="alternateBounds" />
          </mxGeometry>
        </mxCell>
        <mxCell id="NiOW4N6MS8t6Ce3KZE2p-40" value="&lt;span style=&quot;font-size: 12px&quot;&gt;{&lt;/span&gt;&lt;br style=&quot;font-size: 12px&quot;&gt;&lt;span style=&quot;font-size: 12px&quot;&gt;&amp;nbsp; &amp;nbsp; &amp;nbsp;&quot;document&quot;:&quot;&quot;,&lt;/span&gt;&lt;br style=&quot;font-size: 12px&quot;&gt;&lt;span style=&quot;font-size: 12px&quot;&gt;&amp;nbsp; &amp;nbsp; &amp;nbsp;&quot;gender&quot;:&quot;&quot;,&amp;nbsp;&lt;/span&gt;&lt;br style=&quot;font-size: 12px&quot;&gt;&lt;span style=&quot;font-size: 12px&quot;&gt;&amp;nbsp; &amp;nbsp; &amp;nbsp;&quot;firstName&quot;:&quot;&quot;,&lt;/span&gt;&lt;br style=&quot;font-size: 12px&quot;&gt;&lt;span style=&quot;font-size: 12px&quot;&gt;&amp;nbsp; &amp;nbsp; &amp;nbsp;&quot;lastName&quot;:&quot;&quot;,&lt;/span&gt;&lt;br style=&quot;font-size: 12px&quot;&gt;&lt;span style=&quot;font-size: 12px&quot;&gt;&amp;nbsp; &amp;nbsp; &amp;nbsp;&quot;email&quot;:&quot;&quot;,&lt;/span&gt;&lt;br style=&quot;font-size: 12px&quot;&gt;&lt;span style=&quot;font-size: 12px&quot;&gt;&amp;nbsp; &amp;nbsp; &amp;nbsp;&quot;password&quot;:&quot;&quot;,&lt;/span&gt;&lt;br style=&quot;font-size: 12px&quot;&gt;&lt;span style=&quot;font-size: 12px&quot;&gt;&amp;nbsp; &amp;nbsp; &amp;nbsp;&quot;telefone&quot;:&quot;&quot;,&lt;/span&gt;&lt;br style=&quot;font-size: 12px&quot;&gt;&lt;span style=&quot;font-size: 12px&quot;&gt;&amp;nbsp; &amp;nbsp; &amp;nbsp;&quot;ong&quot;: boolean&quot;&lt;/span&gt;&lt;br style=&quot;font-size: 12px&quot;&gt;&lt;span style=&quot;font-size: 12px&quot;&gt;}&lt;/span&gt;" style="shape=partialRectangle;html=1;whiteSpace=wrap;connectable=0;fillColor=none;top=0;left=0;bottom=0;right=0;overflow=hidden;pointerEvents=1;fontSize=13;startSize=30;align=left;" parent="NiOW4N6MS8t6Ce3KZE2p-37" vertex="1">
          <mxGeometry x="510" width="200" height="184" as="geometry">
            <mxRectangle width="200" height="184" as="alternateBounds" />
          </mxGeometry>
        </mxCell>
        <mxCell id="NiOW4N6MS8t6Ce3KZE2p-41" value="&lt;b&gt;204&lt;/b&gt;" style="shape=partialRectangle;html=1;whiteSpace=wrap;connectable=0;fillColor=none;top=0;left=0;bottom=0;right=0;overflow=hidden;pointerEvents=1;fontSize=13;startSize=30;align=left;" parent="NiOW4N6MS8t6Ce3KZE2p-37" vertex="1">
          <mxGeometry x="710" width="230" height="184" as="geometry">
            <mxRectangle width="230" height="184" as="alternateBounds" />
          </mxGeometry>
        </mxCell>
        <mxCell id="baZkVkUZ6bUy4dbWCn5h-1" value="&lt;h1&gt;Pethelp-users-api&lt;/h1&gt;&lt;p style=&quot;font-size: 14px&quot;&gt;&lt;font style=&quot;font-size: 14px&quot;&gt;Microserviço responsável pelo gerenciamento de usuários.&lt;/font&gt;&lt;/p&gt;&lt;p style=&quot;font-size: 14px&quot;&gt;&lt;font style=&quot;font-size: 14px&quot;&gt;&lt;br&gt;&lt;/font&gt;&lt;/p&gt;&lt;p style=&quot;font-size: 14px&quot;&gt;&lt;font style=&quot;font-size: 14px&quot;&gt;&lt;b&gt;Linguagem&lt;/b&gt;:&lt;/font&gt;&lt;/p&gt;&lt;p style=&quot;font-size: 14px&quot;&gt;&lt;font style=&quot;font-size: 14px&quot;&gt;&lt;b&gt;Hospedagem:&lt;/b&gt;&amp;nbsp;AWS EC2&lt;/font&gt;&lt;/p&gt;&lt;p style=&quot;font-size: 14px&quot;&gt;&lt;font style=&quot;font-size: 14px&quot;&gt;&lt;b&gt;Database&lt;/b&gt;: PhUsersDb (PostgreSQL - AWS RDS) - Subir por Codefirst&lt;/font&gt;&lt;/p&gt;" style="text;html=1;strokeColor=none;fillColor=none;spacing=5;spacingTop=-20;whiteSpace=wrap;overflow=hidden;rounded=0;" vertex="1" parent="tf-IM1iumwktd0zkR87c-1">
          <mxGeometry x="120" y="-800" width="710" height="200" as="geometry" />
        </mxCell>
      </root>
    </mxGraphModel>
  </diagram>
  <diagram name="PetHelp-pets-api" id="ZOf1911gwwYOc4kLxRO0">
    <mxGraphModel dx="1209" dy="1512" grid="1" gridSize="10" guides="1" tooltips="1" connect="1" arrows="1" fold="1" page="1" pageScale="1" pageWidth="1100" pageHeight="850" background="none" math="0" shadow="0">
      <root>
        <mxCell id="_1vZ2HJvOgCj-4hsIMGk-0" />
        <mxCell id="_1vZ2HJvOgCj-4hsIMGk-1" parent="_1vZ2HJvOgCj-4hsIMGk-0" />
        <mxCell id="_1vZ2HJvOgCj-4hsIMGk-2" value="" style="shape=table;html=1;whiteSpace=wrap;startSize=0;container=1;collapsible=0;childLayout=tableLayout;fontSize=13;" vertex="1" parent="_1vZ2HJvOgCj-4hsIMGk-1">
          <mxGeometry x="130" y="-560" width="940" height="897" as="geometry" />
        </mxCell>
        <mxCell id="_1vZ2HJvOgCj-4hsIMGk-3" value="" style="shape=partialRectangle;html=1;whiteSpace=wrap;collapsible=0;dropTarget=0;pointerEvents=0;fillColor=none;top=0;left=0;bottom=0;right=0;points=[[0,0.5],[1,0.5]];portConstraint=eastwest;fontSize=13;startSize=30;" vertex="1" parent="_1vZ2HJvOgCj-4hsIMGk-2">
          <mxGeometry width="940" height="30" as="geometry" />
        </mxCell>
        <mxCell id="_1vZ2HJvOgCj-4hsIMGk-4" value="&lt;b style=&quot;font-size: 12px ; text-align: left&quot;&gt;Rotas&lt;/b&gt;" style="shape=partialRectangle;html=1;whiteSpace=wrap;connectable=0;fillColor=none;top=0;left=0;bottom=0;right=0;overflow=hidden;pointerEvents=1;fontSize=13;startSize=30;" vertex="1" parent="_1vZ2HJvOgCj-4hsIMGk-3">
          <mxGeometry width="190" height="30" as="geometry">
            <mxRectangle width="190" height="30" as="alternateBounds" />
          </mxGeometry>
        </mxCell>
        <mxCell id="_1vZ2HJvOgCj-4hsIMGk-5" value="&lt;b&gt;Descrição&lt;/b&gt;" style="shape=partialRectangle;html=1;whiteSpace=wrap;connectable=0;fillColor=none;top=0;left=0;bottom=0;right=0;overflow=hidden;pointerEvents=1;fontSize=13;startSize=30;" vertex="1" parent="_1vZ2HJvOgCj-4hsIMGk-3">
          <mxGeometry x="190" width="150" height="30" as="geometry">
            <mxRectangle width="150" height="30" as="alternateBounds" />
          </mxGeometry>
        </mxCell>
        <mxCell id="_1vZ2HJvOgCj-4hsIMGk-6" value="&lt;b style=&quot;font-size: 12px&quot;&gt;Headers&lt;/b&gt;" style="shape=partialRectangle;html=1;whiteSpace=wrap;connectable=0;fillColor=none;top=0;left=0;bottom=0;right=0;overflow=hidden;pointerEvents=1;fontSize=13;startSize=30;" vertex="1" parent="_1vZ2HJvOgCj-4hsIMGk-3">
          <mxGeometry x="340" width="170" height="30" as="geometry">
            <mxRectangle width="170" height="30" as="alternateBounds" />
          </mxGeometry>
        </mxCell>
        <mxCell id="_1vZ2HJvOgCj-4hsIMGk-7" value="&lt;b style=&quot;font-size: 12px ; text-align: left&quot;&gt;Body request&lt;/b&gt;" style="shape=partialRectangle;html=1;whiteSpace=wrap;connectable=0;fillColor=none;top=0;left=0;bottom=0;right=0;overflow=hidden;pointerEvents=1;fontSize=13;startSize=30;" vertex="1" parent="_1vZ2HJvOgCj-4hsIMGk-3">
          <mxGeometry x="510" width="200" height="30" as="geometry">
            <mxRectangle width="200" height="30" as="alternateBounds" />
          </mxGeometry>
        </mxCell>
        <mxCell id="_1vZ2HJvOgCj-4hsIMGk-8" value="&lt;b style=&quot;font-size: 12px ; text-align: left&quot;&gt;Response&lt;/b&gt;" style="shape=partialRectangle;html=1;whiteSpace=wrap;connectable=0;fillColor=none;top=0;left=0;bottom=0;right=0;overflow=hidden;pointerEvents=1;fontSize=13;startSize=30;" vertex="1" parent="_1vZ2HJvOgCj-4hsIMGk-3">
          <mxGeometry x="710" width="230" height="30" as="geometry">
            <mxRectangle width="230" height="30" as="alternateBounds" />
          </mxGeometry>
        </mxCell>
        <mxCell id="_1vZ2HJvOgCj-4hsIMGk-9" value="" style="shape=partialRectangle;html=1;whiteSpace=wrap;collapsible=0;dropTarget=0;pointerEvents=0;fillColor=none;top=0;left=0;bottom=0;right=0;points=[[0,0.5],[1,0.5]];portConstraint=eastwest;fontSize=13;startSize=30;" vertex="1" parent="_1vZ2HJvOgCj-4hsIMGk-2">
          <mxGeometry y="30" width="940" height="200" as="geometry" />
        </mxCell>
        <mxCell id="_1vZ2HJvOgCj-4hsIMGk-10" value="&lt;span style=&quot;font-size: 12px&quot;&gt;POST /pets/&lt;/span&gt;" style="shape=partialRectangle;html=1;whiteSpace=wrap;connectable=0;fillColor=none;top=0;left=0;bottom=0;right=0;overflow=hidden;pointerEvents=1;fontSize=13;startSize=30;" vertex="1" parent="_1vZ2HJvOgCj-4hsIMGk-9">
          <mxGeometry width="190" height="200" as="geometry">
            <mxRectangle width="190" height="200" as="alternateBounds" />
          </mxGeometry>
        </mxCell>
        <mxCell id="_1vZ2HJvOgCj-4hsIMGk-11" value="Cadastro de pets" style="shape=partialRectangle;html=1;whiteSpace=wrap;connectable=0;fillColor=none;top=0;left=0;bottom=0;right=0;overflow=hidden;pointerEvents=1;fontSize=13;startSize=30;" vertex="1" parent="_1vZ2HJvOgCj-4hsIMGk-9">
          <mxGeometry x="190" width="150" height="200" as="geometry">
            <mxRectangle width="150" height="200" as="alternateBounds" />
          </mxGeometry>
        </mxCell>
        <mxCell id="_1vZ2HJvOgCj-4hsIMGk-12" value="" style="shape=partialRectangle;html=1;whiteSpace=wrap;connectable=0;fillColor=none;top=0;left=0;bottom=0;right=0;overflow=hidden;pointerEvents=1;fontSize=13;startSize=30;" vertex="1" parent="_1vZ2HJvOgCj-4hsIMGk-9">
          <mxGeometry x="340" width="170" height="200" as="geometry">
            <mxRectangle width="170" height="200" as="alternateBounds" />
          </mxGeometry>
        </mxCell>
        <mxCell id="_1vZ2HJvOgCj-4hsIMGk-13" value="&lt;span style=&quot;font-size: 12px&quot;&gt;{&lt;/span&gt;&lt;br style=&quot;font-size: 12px&quot;&gt;&lt;span style=&quot;font-size: 12px&quot;&gt;&amp;nbsp; &amp;nbsp; &amp;nbsp;&quot;&lt;/span&gt;&lt;span style=&quot;font-size: 12px&quot;&gt;type&quot;:&quot;&quot;,&lt;/span&gt;&lt;div&gt;&lt;span style=&quot;font-size: 12px&quot;&gt;&amp;nbsp; &amp;nbsp; &amp;nbsp;&quot;breed&quot;:&quot;&quot;,&lt;/span&gt;&lt;/div&gt;&lt;div&gt;&lt;span style=&quot;font-size: 12px&quot;&gt;&amp;nbsp; &amp;nbsp; &amp;nbsp;&quot;dateBirth&quot;:&quot;&quot;,&lt;/span&gt;&lt;/div&gt;&lt;div&gt;&lt;span style=&quot;font-size: 12px&quot;&gt;&amp;nbsp; &amp;nbsp; &amp;nbsp;&quot;size&quot;:&quot;&quot;,&lt;/span&gt;&lt;/div&gt;&lt;div&gt;&lt;span style=&quot;font-size: 12px&quot;&gt;&amp;nbsp; &amp;nbsp; &amp;nbsp;&quot;color&quot;:&quot;&quot;,&lt;/span&gt;&lt;/div&gt;&lt;div&gt;&lt;span style=&quot;font-size: 12px&quot;&gt;&amp;nbsp; &amp;nbsp; &amp;nbsp;&quot;castrated&quot;:&quot;&quot;,&lt;/span&gt;&lt;/div&gt;&lt;div&gt;&lt;span style=&quot;font-size: 12px&quot;&gt;&amp;nbsp; &amp;nbsp; &amp;nbsp;&quot;createdAt&quot;:&quot;&quot;,&lt;/span&gt;&lt;/div&gt;&lt;div&gt;&lt;span style=&quot;font-size: 12px&quot;&gt;&amp;nbsp; &amp;nbsp; &amp;nbsp;&quot;updatedAt&quot;:&quot;&quot;,&lt;/span&gt;&lt;/div&gt;&lt;div&gt;&lt;span style=&quot;font-size: 12px&quot;&gt;&amp;nbsp; &amp;nbsp; &amp;nbsp;&quot;status&quot;:&quot;&quot;&lt;/span&gt;&lt;/div&gt;&lt;span style=&quot;font-size: 12px&quot;&gt;}&lt;/span&gt;" style="shape=partialRectangle;html=1;whiteSpace=wrap;connectable=0;fillColor=none;top=0;left=0;bottom=0;right=0;overflow=hidden;pointerEvents=1;fontSize=13;startSize=30;align=left;" vertex="1" parent="_1vZ2HJvOgCj-4hsIMGk-9">
          <mxGeometry x="510" width="200" height="200" as="geometry">
            <mxRectangle width="200" height="200" as="alternateBounds" />
          </mxGeometry>
        </mxCell>
        <mxCell id="_1vZ2HJvOgCj-4hsIMGk-14" value="&lt;b style=&quot;font-size: 12px&quot;&gt;201 - Created&lt;/b&gt;" style="shape=partialRectangle;html=1;whiteSpace=wrap;connectable=0;fillColor=none;top=0;left=0;bottom=0;right=0;overflow=hidden;pointerEvents=1;fontSize=13;startSize=30;align=left;" vertex="1" parent="_1vZ2HJvOgCj-4hsIMGk-9">
          <mxGeometry x="710" width="230" height="200" as="geometry">
            <mxRectangle width="230" height="200" as="alternateBounds" />
          </mxGeometry>
        </mxCell>
        <mxCell id="_1vZ2HJvOgCj-4hsIMGk-15" value="" style="shape=partialRectangle;html=1;whiteSpace=wrap;collapsible=0;dropTarget=0;pointerEvents=0;fillColor=none;top=0;left=0;bottom=0;right=0;points=[[0,0.5],[1,0.5]];portConstraint=eastwest;fontSize=13;startSize=30;" vertex="1" parent="_1vZ2HJvOgCj-4hsIMGk-2">
          <mxGeometry y="230" width="940" height="85" as="geometry" />
        </mxCell>
        <mxCell id="_1vZ2HJvOgCj-4hsIMGk-16" value="&lt;span style=&quot;font-size: 12px&quot;&gt;POST /authentication/&lt;/span&gt;" style="shape=partialRectangle;html=1;whiteSpace=wrap;connectable=0;fillColor=none;top=0;left=0;bottom=0;right=0;overflow=hidden;pointerEvents=1;fontSize=13;startSize=30;" vertex="1" parent="_1vZ2HJvOgCj-4hsIMGk-15">
          <mxGeometry width="190" height="85" as="geometry">
            <mxRectangle width="190" height="85" as="alternateBounds" />
          </mxGeometry>
        </mxCell>
        <mxCell id="_1vZ2HJvOgCj-4hsIMGk-17" value="Autenticação do usuário com retorno de token para dados válidos que possua userId e data de validade de 1 dia." style="shape=partialRectangle;html=1;whiteSpace=wrap;connectable=0;fillColor=none;top=0;left=0;bottom=0;right=0;overflow=hidden;pointerEvents=1;fontSize=13;startSize=30;" vertex="1" parent="_1vZ2HJvOgCj-4hsIMGk-15">
          <mxGeometry x="190" width="150" height="85" as="geometry">
            <mxRectangle width="150" height="85" as="alternateBounds" />
          </mxGeometry>
        </mxCell>
        <mxCell id="_1vZ2HJvOgCj-4hsIMGk-18" value="" style="shape=partialRectangle;html=1;whiteSpace=wrap;connectable=0;fillColor=none;top=0;left=0;bottom=0;right=0;overflow=hidden;pointerEvents=1;fontSize=13;startSize=30;" vertex="1" parent="_1vZ2HJvOgCj-4hsIMGk-15">
          <mxGeometry x="340" width="170" height="85" as="geometry">
            <mxRectangle width="170" height="85" as="alternateBounds" />
          </mxGeometry>
        </mxCell>
        <mxCell id="_1vZ2HJvOgCj-4hsIMGk-19" value="&lt;span style=&quot;font-size: 12px&quot;&gt;{&lt;/span&gt;&lt;br style=&quot;font-size: 12px&quot;&gt;&lt;span style=&quot;font-size: 12px&quot;&gt;&amp;nbsp; &amp;nbsp; &amp;nbsp;&quot;email&quot;:&quot;&quot;,&lt;/span&gt;&lt;br style=&quot;font-size: 12px&quot;&gt;&lt;span style=&quot;font-size: 12px&quot;&gt;&amp;nbsp; &amp;nbsp; &amp;nbsp;&quot;password&quot;:&quot;&quot;&lt;/span&gt;&lt;br style=&quot;font-size: 12px&quot;&gt;&lt;div&gt;&lt;span style=&quot;font-size: 12px&quot;&gt;}&lt;/span&gt;&lt;/div&gt;" style="shape=partialRectangle;html=1;whiteSpace=wrap;connectable=0;fillColor=none;top=0;left=0;bottom=0;right=0;overflow=hidden;pointerEvents=1;fontSize=13;startSize=30;align=left;" vertex="1" parent="_1vZ2HJvOgCj-4hsIMGk-15">
          <mxGeometry x="510" width="200" height="85" as="geometry">
            <mxRectangle width="200" height="85" as="alternateBounds" />
          </mxGeometry>
        </mxCell>
        <mxCell id="_1vZ2HJvOgCj-4hsIMGk-20" value="&lt;br&gt;&lt;b&gt;200&lt;/b&gt;&lt;br&gt;&lt;span style=&quot;color: rgb(0 , 0 , 0) ; font-family: &amp;#34;helvetica&amp;#34; ; font-size: 12px ; font-style: normal ; font-weight: 400 ; letter-spacing: normal ; text-indent: 0px ; text-transform: none ; word-spacing: 0px ; background-color: rgb(248 , 249 , 250) ; display: inline ; float: none&quot;&gt;{&lt;/span&gt;&lt;br style=&quot;color: rgb(0 , 0 , 0) ; font-family: &amp;#34;helvetica&amp;#34; ; font-size: 12px ; font-style: normal ; font-weight: 400 ; letter-spacing: normal ; text-indent: 0px ; text-transform: none ; word-spacing: 0px ; background-color: rgb(248 , 249 , 250)&quot;&gt;&lt;span style=&quot;color: rgb(0 , 0 , 0) ; font-family: &amp;#34;helvetica&amp;#34; ; font-size: 12px ; font-style: normal ; font-weight: 400 ; letter-spacing: normal ; text-indent: 0px ; text-transform: none ; word-spacing: 0px ; background-color: rgb(248 , 249 , 250) ; display: inline ; float: none&quot;&gt;&amp;nbsp; &amp;nbsp; &amp;nbsp;&lt;/span&gt;&lt;span style=&quot;color: rgb(0 , 0 , 0) ; font-family: &amp;#34;helvetica&amp;#34; ; font-size: 12px ; font-style: normal ; font-weight: 400 ; letter-spacing: normal ; text-indent: 0px ; text-transform: none ; word-spacing: 0px ; background-color: rgb(248 , 249 , 250) ; display: inline ; float: none&quot;&gt;&quot;token&quot;:&quot;deve conter userId&quot;&lt;/span&gt;&lt;br style=&quot;color: rgb(0 , 0 , 0) ; font-family: &amp;#34;helvetica&amp;#34; ; font-size: 12px ; font-style: normal ; font-weight: 400 ; letter-spacing: normal ; text-indent: 0px ; text-transform: none ; word-spacing: 0px ; background-color: rgb(248 , 249 , 250)&quot;&gt;&lt;span style=&quot;color: rgb(0 , 0 , 0) ; font-family: &amp;#34;helvetica&amp;#34; ; font-size: 12px ; font-style: normal ; font-weight: 400 ; letter-spacing: normal ; text-indent: 0px ; text-transform: none ; word-spacing: 0px ; background-color: rgb(248 , 249 , 250) ; display: inline ; float: none&quot;&gt;}&lt;/span&gt;" style="shape=partialRectangle;html=1;whiteSpace=wrap;connectable=0;fillColor=none;top=0;left=0;bottom=0;right=0;overflow=hidden;pointerEvents=1;fontSize=13;startSize=30;align=left;" vertex="1" parent="_1vZ2HJvOgCj-4hsIMGk-15">
          <mxGeometry x="710" width="230" height="85" as="geometry">
            <mxRectangle width="230" height="85" as="alternateBounds" />
          </mxGeometry>
        </mxCell>
        <mxCell id="_1vZ2HJvOgCj-4hsIMGk-21" style="shape=partialRectangle;html=1;whiteSpace=wrap;collapsible=0;dropTarget=0;pointerEvents=0;fillColor=none;top=0;left=0;bottom=0;right=0;points=[[0,0.5],[1,0.5]];portConstraint=eastwest;fontSize=13;startSize=30;" vertex="1" parent="_1vZ2HJvOgCj-4hsIMGk-2">
          <mxGeometry y="315" width="940" height="199" as="geometry" />
        </mxCell>
        <mxCell id="_1vZ2HJvOgCj-4hsIMGk-22" value="POST /authentication/logout" style="shape=partialRectangle;html=1;whiteSpace=wrap;connectable=0;fillColor=none;top=0;left=0;bottom=0;right=0;overflow=hidden;pointerEvents=1;fontSize=13;startSize=30;" vertex="1" parent="_1vZ2HJvOgCj-4hsIMGk-21">
          <mxGeometry width="190" height="199" as="geometry">
            <mxRectangle width="190" height="199" as="alternateBounds" />
          </mxGeometry>
        </mxCell>
        <mxCell id="_1vZ2HJvOgCj-4hsIMGk-23" value="Logout da conta. Necessário Token pra remover autorização da conta." style="shape=partialRectangle;html=1;whiteSpace=wrap;connectable=0;fillColor=none;top=0;left=0;bottom=0;right=0;overflow=hidden;pointerEvents=1;fontSize=13;startSize=30;" vertex="1" parent="_1vZ2HJvOgCj-4hsIMGk-21">
          <mxGeometry x="190" width="150" height="199" as="geometry">
            <mxRectangle width="150" height="199" as="alternateBounds" />
          </mxGeometry>
        </mxCell>
        <mxCell id="_1vZ2HJvOgCj-4hsIMGk-24" value="&#xa;&#xa;&lt;span style=&quot;color: rgb(0, 0, 0); font-family: helvetica; font-size: 12px; font-style: normal; font-weight: 400; letter-spacing: normal; text-align: left; text-indent: 0px; text-transform: none; word-spacing: 0px; background-color: rgb(248, 249, 250); display: inline; float: none;&quot;&gt;Authorization: token&lt;/span&gt;&#xa;&#xa;" style="shape=partialRectangle;html=1;whiteSpace=wrap;connectable=0;fillColor=none;top=0;left=0;bottom=0;right=0;overflow=hidden;pointerEvents=1;fontSize=13;startSize=30;" vertex="1" parent="_1vZ2HJvOgCj-4hsIMGk-21">
          <mxGeometry x="340" width="170" height="199" as="geometry">
            <mxRectangle width="170" height="199" as="alternateBounds" />
          </mxGeometry>
        </mxCell>
        <mxCell id="_1vZ2HJvOgCj-4hsIMGk-25" style="shape=partialRectangle;html=1;whiteSpace=wrap;connectable=0;fillColor=none;top=0;left=0;bottom=0;right=0;overflow=hidden;pointerEvents=1;fontSize=13;startSize=30;" vertex="1" parent="_1vZ2HJvOgCj-4hsIMGk-21">
          <mxGeometry x="510" width="200" height="199" as="geometry">
            <mxRectangle width="200" height="199" as="alternateBounds" />
          </mxGeometry>
        </mxCell>
        <mxCell id="_1vZ2HJvOgCj-4hsIMGk-26" value="&#xa;&#xa;&lt;br style=&quot;color: rgb(0, 0, 0); font-family: helvetica; font-size: 13px; font-style: normal; font-weight: 400; letter-spacing: normal; text-align: left; text-indent: 0px; text-transform: none; word-spacing: 0px; background-color: rgb(248, 249, 250);&quot;&gt;&lt;b style=&quot;color: rgb(0, 0, 0); font-family: helvetica; font-size: 13px; font-style: normal; letter-spacing: normal; text-align: left; text-indent: 0px; text-transform: none; word-spacing: 0px; background-color: rgb(248, 249, 250);&quot;&gt;200&lt;/b&gt;&lt;br style=&quot;color: rgb(0, 0, 0); font-family: helvetica; font-size: 13px; font-style: normal; font-weight: 400; letter-spacing: normal; text-align: left; text-indent: 0px; text-transform: none; word-spacing: 0px; background-color: rgb(248, 249, 250);&quot;&gt;&lt;span style=&quot;color: rgb(0, 0, 0); font-style: normal; font-weight: 400; letter-spacing: normal; text-align: left; text-indent: 0px; text-transform: none; word-spacing: 0px; font-family: helvetica; font-size: 12px; background-color: rgb(248, 249, 250); display: inline; float: none;&quot;&gt;{&lt;/span&gt;&lt;br style=&quot;color: rgb(0, 0, 0); font-style: normal; font-weight: 400; letter-spacing: normal; text-align: left; text-indent: 0px; text-transform: none; word-spacing: 0px; font-family: helvetica; font-size: 12px; background-color: rgb(248, 249, 250);&quot;&gt;&lt;span style=&quot;color: rgb(0, 0, 0); font-style: normal; font-weight: 400; letter-spacing: normal; text-align: left; text-indent: 0px; text-transform: none; word-spacing: 0px; font-family: helvetica; font-size: 12px; background-color: rgb(248, 249, 250); display: inline; float: none;&quot;&gt;&amp;nbsp; &amp;nbsp; &amp;nbsp;&lt;/span&gt;&lt;span style=&quot;color: rgb(0, 0, 0); font-style: normal; font-weight: 400; letter-spacing: normal; text-align: left; text-indent: 0px; text-transform: none; word-spacing: 0px; font-family: helvetica; font-size: 12px; background-color: rgb(248, 249, 250); display: inline; float: none;&quot;&gt;&quot;token&quot;:&quot;deve conter userId&quot;&lt;/span&gt;&lt;br style=&quot;color: rgb(0, 0, 0); font-style: normal; font-weight: 400; letter-spacing: normal; text-align: left; text-indent: 0px; text-transform: none; word-spacing: 0px; font-family: helvetica; font-size: 12px; background-color: rgb(248, 249, 250);&quot;&gt;&lt;span style=&quot;color: rgb(0, 0, 0); font-style: normal; font-weight: 400; letter-spacing: normal; text-align: left; text-indent: 0px; text-transform: none; word-spacing: 0px; font-family: helvetica; font-size: 12px; background-color: rgb(248, 249, 250); display: inline; float: none;&quot;&gt;}&lt;/span&gt;&#xa;&#xa;" style="shape=partialRectangle;html=1;whiteSpace=wrap;connectable=0;fillColor=none;top=0;left=0;bottom=0;right=0;overflow=hidden;pointerEvents=1;fontSize=13;startSize=30;align=left;" vertex="1" parent="_1vZ2HJvOgCj-4hsIMGk-21">
          <mxGeometry x="710" width="230" height="199" as="geometry">
            <mxRectangle width="230" height="199" as="alternateBounds" />
          </mxGeometry>
        </mxCell>
        <mxCell id="_1vZ2HJvOgCj-4hsIMGk-27" style="shape=partialRectangle;html=1;whiteSpace=wrap;collapsible=0;dropTarget=0;pointerEvents=0;fillColor=none;top=0;left=0;bottom=0;right=0;points=[[0,0.5],[1,0.5]];portConstraint=eastwest;fontSize=13;startSize=30;" vertex="1" parent="_1vZ2HJvOgCj-4hsIMGk-2">
          <mxGeometry y="514" width="940" height="199" as="geometry" />
        </mxCell>
        <mxCell id="_1vZ2HJvOgCj-4hsIMGk-28" value="&lt;span style=&quot;font-size: 12px ; text-align: left&quot;&gt;GET /users/{userid}&lt;/span&gt;" style="shape=partialRectangle;html=1;whiteSpace=wrap;connectable=0;fillColor=none;top=0;left=0;bottom=0;right=0;overflow=hidden;pointerEvents=1;fontSize=13;startSize=30;" vertex="1" parent="_1vZ2HJvOgCj-4hsIMGk-27">
          <mxGeometry width="190" height="199" as="geometry">
            <mxRectangle width="190" height="199" as="alternateBounds" />
          </mxGeometry>
        </mxCell>
        <mxCell id="_1vZ2HJvOgCj-4hsIMGk-29" value="Consulta de usuário pelo userId. Necessário Token pra autorização da consulta." style="shape=partialRectangle;html=1;whiteSpace=wrap;connectable=0;fillColor=none;top=0;left=0;bottom=0;right=0;overflow=hidden;pointerEvents=1;fontSize=13;startSize=30;" vertex="1" parent="_1vZ2HJvOgCj-4hsIMGk-27">
          <mxGeometry x="190" width="150" height="199" as="geometry">
            <mxRectangle width="150" height="199" as="alternateBounds" />
          </mxGeometry>
        </mxCell>
        <mxCell id="_1vZ2HJvOgCj-4hsIMGk-30" value="&lt;span style=&quot;font-size: 12px ; text-align: left&quot;&gt;Authorization: token&lt;/span&gt;" style="shape=partialRectangle;html=1;whiteSpace=wrap;connectable=0;fillColor=none;top=0;left=0;bottom=0;right=0;overflow=hidden;pointerEvents=1;fontSize=13;startSize=30;" vertex="1" parent="_1vZ2HJvOgCj-4hsIMGk-27">
          <mxGeometry x="340" width="170" height="199" as="geometry">
            <mxRectangle width="170" height="199" as="alternateBounds" />
          </mxGeometry>
        </mxCell>
        <mxCell id="_1vZ2HJvOgCj-4hsIMGk-31" style="shape=partialRectangle;html=1;whiteSpace=wrap;connectable=0;fillColor=none;top=0;left=0;bottom=0;right=0;overflow=hidden;pointerEvents=1;fontSize=13;startSize=30;" vertex="1" parent="_1vZ2HJvOgCj-4hsIMGk-27">
          <mxGeometry x="510" width="200" height="199" as="geometry">
            <mxRectangle width="200" height="199" as="alternateBounds" />
          </mxGeometry>
        </mxCell>
        <mxCell id="_1vZ2HJvOgCj-4hsIMGk-32" value="&lt;b&gt;200&lt;br&gt;&lt;/b&gt;&lt;span style=&quot;font-size: 12px&quot;&gt;{&lt;/span&gt;&lt;br style=&quot;font-size: 12px&quot;&gt;&lt;span style=&quot;font-size: 12px&quot;&gt;&amp;nbsp; &amp;nbsp; &amp;nbsp;&quot;document&quot;:&quot;&quot;,&lt;/span&gt;&lt;br style=&quot;font-size: 12px&quot;&gt;&lt;span style=&quot;font-size: 12px&quot;&gt;&amp;nbsp; &amp;nbsp; &amp;nbsp;&quot;gender&quot;:&quot;&quot;,&amp;nbsp;&lt;/span&gt;&lt;br style=&quot;font-size: 12px&quot;&gt;&lt;div&gt;&lt;span style=&quot;font-size: 12px&quot;&gt;&amp;nbsp; &amp;nbsp; &amp;nbsp;&quot;firstName&quot;:&quot;&quot;,&lt;/span&gt;&lt;/div&gt;&lt;span style=&quot;font-size: 12px&quot;&gt;&lt;div&gt;&lt;span&gt;&amp;nbsp; &amp;nbsp; &amp;nbsp;&quot;lastName&quot;:&quot;&quot;,&lt;/span&gt;&lt;/div&gt;&lt;/span&gt;&lt;span style=&quot;font-size: 12px&quot;&gt;&amp;nbsp; &amp;nbsp; &amp;nbsp;&quot;email&quot;:&quot;&quot;,&lt;/span&gt;&lt;br style=&quot;font-size: 12px&quot;&gt;&lt;span style=&quot;font-size: 12px&quot;&gt;&amp;nbsp; &amp;nbsp; &amp;nbsp;&quot;password&quot;:&quot;&quot;,&lt;/span&gt;&lt;br style=&quot;font-size: 12px&quot;&gt;&lt;span style=&quot;font-size: 12px&quot;&gt;&amp;nbsp; &amp;nbsp; &amp;nbsp;&quot;telefone&quot;:&quot;&quot;,&lt;/span&gt;&lt;br style=&quot;font-size: 12px&quot;&gt;&lt;span style=&quot;font-size: 12px&quot;&gt;&amp;nbsp; &amp;nbsp; &amp;nbsp;&quot;ong&quot;: boolean&quot;&lt;/span&gt;&lt;br style=&quot;font-size: 12px&quot;&gt;&lt;span style=&quot;font-size: 12px&quot;&gt;}&lt;/span&gt;" style="shape=partialRectangle;html=1;whiteSpace=wrap;connectable=0;fillColor=none;top=0;left=0;bottom=0;right=0;overflow=hidden;pointerEvents=1;fontSize=13;startSize=30;align=left;" vertex="1" parent="_1vZ2HJvOgCj-4hsIMGk-27">
          <mxGeometry x="710" width="230" height="199" as="geometry">
            <mxRectangle width="230" height="199" as="alternateBounds" />
          </mxGeometry>
        </mxCell>
        <mxCell id="_1vZ2HJvOgCj-4hsIMGk-33" style="shape=partialRectangle;html=1;whiteSpace=wrap;collapsible=0;dropTarget=0;pointerEvents=0;fillColor=none;top=0;left=0;bottom=0;right=0;points=[[0,0.5],[1,0.5]];portConstraint=eastwest;fontSize=13;startSize=30;" vertex="1" parent="_1vZ2HJvOgCj-4hsIMGk-2">
          <mxGeometry y="713" width="940" height="184" as="geometry" />
        </mxCell>
        <mxCell id="_1vZ2HJvOgCj-4hsIMGk-34" value="&lt;span style=&quot;font-size: 12px ; text-align: left&quot;&gt;PATCH /users/{userid}&lt;/span&gt;" style="shape=partialRectangle;html=1;whiteSpace=wrap;connectable=0;fillColor=none;top=0;left=0;bottom=0;right=0;overflow=hidden;pointerEvents=1;fontSize=13;startSize=30;" vertex="1" parent="_1vZ2HJvOgCj-4hsIMGk-33">
          <mxGeometry width="190" height="184" as="geometry">
            <mxRectangle width="190" height="184" as="alternateBounds" />
          </mxGeometry>
        </mxCell>
        <mxCell id="_1vZ2HJvOgCj-4hsIMGk-35" value="Atualização de Dados do Usuário pelo userId" style="shape=partialRectangle;html=1;whiteSpace=wrap;connectable=0;fillColor=none;top=0;left=0;bottom=0;right=0;overflow=hidden;pointerEvents=1;fontSize=13;startSize=30;" vertex="1" parent="_1vZ2HJvOgCj-4hsIMGk-33">
          <mxGeometry x="190" width="150" height="184" as="geometry">
            <mxRectangle width="150" height="184" as="alternateBounds" />
          </mxGeometry>
        </mxCell>
        <mxCell id="_1vZ2HJvOgCj-4hsIMGk-36" value="&lt;span style=&quot;font-size: 12px ; text-align: left&quot;&gt;Authorization: token&lt;/span&gt;" style="shape=partialRectangle;html=1;whiteSpace=wrap;connectable=0;fillColor=none;top=0;left=0;bottom=0;right=0;overflow=hidden;pointerEvents=1;fontSize=13;startSize=30;" vertex="1" parent="_1vZ2HJvOgCj-4hsIMGk-33">
          <mxGeometry x="340" width="170" height="184" as="geometry">
            <mxRectangle width="170" height="184" as="alternateBounds" />
          </mxGeometry>
        </mxCell>
        <mxCell id="_1vZ2HJvOgCj-4hsIMGk-37" value="&lt;span style=&quot;font-size: 12px&quot;&gt;{&lt;/span&gt;&lt;br style=&quot;font-size: 12px&quot;&gt;&lt;span style=&quot;font-size: 12px&quot;&gt;&amp;nbsp; &amp;nbsp; &amp;nbsp;&quot;document&quot;:&quot;&quot;,&lt;/span&gt;&lt;br style=&quot;font-size: 12px&quot;&gt;&lt;span style=&quot;font-size: 12px&quot;&gt;&amp;nbsp; &amp;nbsp; &amp;nbsp;&quot;gender&quot;:&quot;&quot;,&amp;nbsp;&lt;/span&gt;&lt;br style=&quot;font-size: 12px&quot;&gt;&lt;span style=&quot;font-size: 12px&quot;&gt;&amp;nbsp; &amp;nbsp; &amp;nbsp;&quot;firstName&quot;:&quot;&quot;,&lt;/span&gt;&lt;br style=&quot;font-size: 12px&quot;&gt;&lt;span style=&quot;font-size: 12px&quot;&gt;&amp;nbsp; &amp;nbsp; &amp;nbsp;&quot;lastName&quot;:&quot;&quot;,&lt;/span&gt;&lt;br style=&quot;font-size: 12px&quot;&gt;&lt;span style=&quot;font-size: 12px&quot;&gt;&amp;nbsp; &amp;nbsp; &amp;nbsp;&quot;email&quot;:&quot;&quot;,&lt;/span&gt;&lt;br style=&quot;font-size: 12px&quot;&gt;&lt;span style=&quot;font-size: 12px&quot;&gt;&amp;nbsp; &amp;nbsp; &amp;nbsp;&quot;password&quot;:&quot;&quot;,&lt;/span&gt;&lt;br style=&quot;font-size: 12px&quot;&gt;&lt;span style=&quot;font-size: 12px&quot;&gt;&amp;nbsp; &amp;nbsp; &amp;nbsp;&quot;telefone&quot;:&quot;&quot;,&lt;/span&gt;&lt;br style=&quot;font-size: 12px&quot;&gt;&lt;span style=&quot;font-size: 12px&quot;&gt;&amp;nbsp; &amp;nbsp; &amp;nbsp;&quot;ong&quot;: boolean&quot;&lt;/span&gt;&lt;br style=&quot;font-size: 12px&quot;&gt;&lt;span style=&quot;font-size: 12px&quot;&gt;}&lt;/span&gt;" style="shape=partialRectangle;html=1;whiteSpace=wrap;connectable=0;fillColor=none;top=0;left=0;bottom=0;right=0;overflow=hidden;pointerEvents=1;fontSize=13;startSize=30;align=left;" vertex="1" parent="_1vZ2HJvOgCj-4hsIMGk-33">
          <mxGeometry x="510" width="200" height="184" as="geometry">
            <mxRectangle width="200" height="184" as="alternateBounds" />
          </mxGeometry>
        </mxCell>
        <mxCell id="_1vZ2HJvOgCj-4hsIMGk-38" value="&lt;b&gt;204&lt;/b&gt;" style="shape=partialRectangle;html=1;whiteSpace=wrap;connectable=0;fillColor=none;top=0;left=0;bottom=0;right=0;overflow=hidden;pointerEvents=1;fontSize=13;startSize=30;align=left;" vertex="1" parent="_1vZ2HJvOgCj-4hsIMGk-33">
          <mxGeometry x="710" width="230" height="184" as="geometry">
            <mxRectangle width="230" height="184" as="alternateBounds" />
          </mxGeometry>
        </mxCell>
        <mxCell id="_1vZ2HJvOgCj-4hsIMGk-39" value="&lt;h1&gt;Pethelp-pets-api&lt;/h1&gt;&lt;p style=&quot;font-size: 14px&quot;&gt;&lt;font style=&quot;font-size: 14px&quot;&gt;Microserviço responsável pelo gerenciamento de pets.&lt;/font&gt;&lt;/p&gt;&lt;p style=&quot;font-size: 14px&quot;&gt;&lt;font style=&quot;font-size: 14px&quot;&gt;&lt;br&gt;&lt;/font&gt;&lt;/p&gt;&lt;p style=&quot;font-size: 14px&quot;&gt;&lt;font style=&quot;font-size: 14px&quot;&gt;&lt;b&gt;Linguagem&lt;/b&gt;:&lt;/font&gt;&lt;/p&gt;&lt;p style=&quot;font-size: 14px&quot;&gt;&lt;font style=&quot;font-size: 14px&quot;&gt;&lt;b&gt;Hospedagem:&lt;/b&gt;&amp;nbsp;AWS EC2&lt;/font&gt;&lt;/p&gt;&lt;p style=&quot;font-size: 14px&quot;&gt;&lt;font style=&quot;font-size: 14px&quot;&gt;&lt;b&gt;Database&lt;/b&gt;: PhPetsDb (PostgreSQL - AWS RDS) - Subir por Codefirst&lt;/font&gt;&lt;/p&gt;" style="text;html=1;strokeColor=none;fillColor=none;spacing=5;spacingTop=-20;whiteSpace=wrap;overflow=hidden;rounded=0;" vertex="1" parent="_1vZ2HJvOgCj-4hsIMGk-1">
          <mxGeometry x="120" y="-800" width="710" height="200" as="geometry" />
        </mxCell>
      </root>
    </mxGraphModel>
  </diagram>
  <diagram id="SvK59t__cLpTrGsQCnwD" name="Page-2">
    <mxGraphModel dx="1209" dy="662" grid="1" gridSize="10" guides="1" tooltips="1" connect="1" arrows="1" fold="1" page="1" pageScale="1" pageWidth="827" pageHeight="1169" math="0" shadow="0">
      <root>
        <mxCell id="eVRJPpe2MvyciSjqnpPk-0" />
        <mxCell id="eVRJPpe2MvyciSjqnpPk-1" parent="eVRJPpe2MvyciSjqnpPk-0" />
      </root>
    </mxGraphModel>
  </diagram>
</mxfile>
